<svg xmlns="http://www.w3.org/2000/svg" width="190" height="100" viewBox="0 0 190 100"><g data-role="renewal-decal" data-accuracy="photograph-reviewed reconstruction; font and colour approximate" data-printing-system="annual-outline" data-typography-review="1970" data-font-evidence="visual candidates; historical font identity unconfirmed" data-placement="rear"><rect x="0" y="0" width="190" height="100" fill="#2671a0"></rect><g data-role="decal-year" data-die="bc-decal-1970" data-fit="natural" role="img" aria-label="70"><title>70</title><g transform="translate(55.87 5) scale(0.43)" fill="none" stroke="#e8ebef" stroke-width="0" stroke-linecap="square" stroke-linejoin="round"><g transform="translate(0 0)" data-character="7" fill="#e8ebef" stroke="none" fill-rule="evenodd"><path d="M0 0 H72 V18 L29 100 H12 L55 16 H0 Z M5 5 V11 H63 L20 95 H26 L67 17 V5 Z"></path></g><g transform="translate(80 0)" data-character="0" fill="#e8ebef" stroke="none" fill-rule="evenodd"><path d="M51 0 A50 50 0 1 1 51 100 A50 50 0 1 1 51 0 Z M51 5 A45 45 0 1 0 51 95 A45 45 0 1 0 51 5 Z M51 25 A25 25 0 1 1 51 75 A25 25 0 1 1 51 25 Z M51 30 A20 20 0 1 0 51 70 A20 20 0 1 0 51 30 Z"></path></g></g></g><g data-role="decal-legend" data-die="bc-decal-print-orbitron-900" data-fit="natural" role="img" aria-label="BRITISH"><title>BRITISH</title><g transform="translate(52.676 57.1) scale(0.123)" fill="none" stroke="#e8ebef" stroke-width="0" stroke-linecap="square" stroke-linejoin="round"><g transform="translate(0 0)" data-character="B" fill="#e8ebef" stroke="none" fill-rule="evenodd"><path d="M8.194 100.0V0.0H83.75Q89.323 0.0 93.967 2.778Q98.611 5.556 101.4585 10.2435Q104.306 14.931 104.306 20.556V39.306Q104.306 41.111 104.0975 42.7085Q103.889 44.306 103.333 45.694Q105.417 48.333 106.8055 51.805499999999995Q108.194 55.278 108.194 58.75V79.444Q108.194 85.069 105.34700000000001 89.7565Q102.5 94.444 97.8125 97.22200000000001Q93.125 100.0 87.5 100.0H8.194ZM29.722 78.333H86.389Q86.389 78.333 86.389 78.333Q86.389 78.333 86.389 78.333V60.0Q86.389 60.0 86.389 60.0Q86.389 60.0 86.389 60.0H29.722Q29.722 60.0 29.722 60.0Q29.722 60.0 29.722 60.0V78.333Q29.722 78.333 29.722 78.333Q29.722 78.333 29.722 78.333ZM29.722 38.333H82.5Q82.5 38.333 82.5 38.333Q82.5 38.333 82.5 38.333V21.667Q82.5 21.667 82.5 21.667Q82.5 21.667 82.5 21.667H29.722Q29.722 21.667 29.722 21.667Q29.722 21.667 29.722 21.667V38.333Q29.722 38.333 29.722 38.333Q29.722 38.333 29.722 38.333Z"></path></g><g transform="translate(125.556 0)" data-character="R" fill="#e8ebef" stroke="none" fill-rule="evenodd"><path d="M85.417 100.0 56.389 65.417H84.583L107.639 92.639V100.0ZM7.778 100.0V0.139H87.083Q92.708 0.139 97.3955 2.9165Q102.083 5.694 104.9305 10.4165Q107.778 15.139 107.778 20.694V46.528Q107.778 52.083 104.9305 56.805499999999995Q102.083 61.528 97.3955 64.3055Q92.708 67.083 87.083 67.083L29.306 67.222V100.0ZM29.306 45.417H85.972Q85.972 45.417 85.972 45.417Q85.972 45.417 85.972 45.417V21.667Q85.972 21.667 85.972 21.667Q85.972 21.667 85.972 21.667H29.306Q29.306 21.667 29.306 21.667Q29.306 21.667 29.306 21.667V45.417Q29.306 45.417 29.306 45.417Q29.306 45.417 29.306 45.417Z"></path></g><g transform="translate(250.139 0)" data-character="I" fill="#e8ebef" stroke="none" fill-rule="evenodd"><path d="M4.306 100.0V0.0H25.556V100.0Z"></path></g><g transform="translate(289.861 0)" data-character="T" fill="#e8ebef" stroke="none" fill-rule="evenodd"><path d="M41.944 100.0V21.667H2.778V0.0H102.778V21.667H63.611V100.0Z"></path></g><g transform="translate(405.278 0)" data-character="I" fill="#e8ebef" stroke="none" fill-rule="evenodd"><path d="M4.306 100.0V0.0H25.556V100.0Z"></path></g><g transform="translate(445 0)" data-character="S" fill="#e8ebef" stroke="none" fill-rule="evenodd"><path d="M28.056 100.0Q22.431 100.0 17.7435 97.22200000000001Q13.056 94.444 10.277999999999999 89.7565Q7.5 85.069 7.5 79.444V70.139H29.028V78.333Q29.028 78.333 29.028 78.333Q29.028 78.333 29.028 78.333H85.694Q85.694 78.333 85.694 78.333Q85.694 78.333 85.694 78.333V60.833Q85.694 60.833 85.694 60.833Q85.694 60.833 85.694 60.833H28.056Q22.431 60.833 17.7435 58.055499999999995Q13.056 55.278 10.277999999999999 50.6225Q7.5 45.967 7.5 40.278V20.556Q7.5 14.931 10.277999999999999 10.2435Q13.056 5.556 17.7435 2.778Q22.431 0.0 28.056 0.0H86.944Q92.517 0.0 97.16149999999999 2.778Q101.806 5.556 104.65299999999999 10.2435Q107.5 14.931 107.5 20.556V29.861H85.694V21.667Q85.694 21.667 85.694 21.667Q85.694 21.667 85.694 21.667H29.028Q29.028 21.667 29.028 21.667Q29.028 21.667 29.028 21.667V39.167Q29.028 39.167 29.028 39.167Q29.028 39.167 29.028 39.167H86.944Q92.517 39.167 97.16149999999999 41.944500000000005Q101.806 44.722 104.65299999999999 49.3775Q107.5 54.033 107.5 59.722V79.444Q107.5 85.069 104.65299999999999 89.7565Q101.806 94.444 97.16149999999999 97.22200000000001Q92.517 100.0 86.944 100.0Z"></path></g><g transform="translate(570 0)" data-character="H" fill="#e8ebef" stroke="none" fill-rule="evenodd"><path d="M7.917 100.0V0.0H29.444V39.167H88.472V0.0H110.0V100.0H88.472V60.833H29.444V100.0Z"></path></g></g></g><g data-role="decal-legend" data-die="bc-decal-print-orbitron-900" data-fit="natural" role="img" aria-label="COLUMBIA"><title>COLUMBIA</title><g transform="translate(38.873 72.7) scale(0.123)" fill="none" stroke="#e8ebef" stroke-width="0" stroke-linecap="square" stroke-linejoin="round"><g transform="translate(0 0)" data-character="C" fill="#e8ebef" stroke="none" fill-rule="evenodd"><path d="M28.333 100.0Q22.639 100.0 17.986 97.22200000000001Q13.333 94.444 10.5555 89.7915Q7.778 85.139 7.778 79.444V20.556Q7.778 14.861 10.5555 10.2085Q13.333 5.556 17.986 2.778Q22.639 0.0 28.333 0.0H107.5V21.667H33.889Q31.667 21.667 30.4865 22.778Q29.306 23.889 29.306 26.25V73.75Q29.306 75.972 30.4865 77.1525Q31.667 78.333 33.889 78.333H107.5V100.0Z"></path></g><g transform="translate(124.167 0)" data-character="O" fill="#e8ebef" stroke="none" fill-rule="evenodd"><path d="M28.056 100.0Q22.431 100.0 17.7435 97.22200000000001Q13.056 94.444 10.277999999999999 89.7565Q7.5 85.069 7.5 79.444V20.556Q7.5 14.931 10.277999999999999 10.2435Q13.056 5.556 17.7435 2.778Q22.431 0.0 28.056 0.0H86.944Q92.517 0.0 97.16149999999999 2.778Q101.806 5.556 104.65299999999999 10.2435Q107.5 14.931 107.5 20.556V79.444Q107.5 85.069 104.65299999999999 89.7565Q101.806 94.444 97.16149999999999 97.22200000000001Q92.517 100.0 86.944 100.0ZM29.028 78.333H85.694Q85.694 78.333 85.694 78.333Q85.694 78.333 85.694 78.333V21.667Q85.694 21.667 85.694 21.667Q85.694 21.667 85.694 21.667H29.028Q29.028 21.667 29.028 21.667Q29.028 21.667 29.028 21.667V78.333Q29.028 78.333 29.028 78.333Q29.028 78.333 29.028 78.333Z"></path></g><g transform="translate(249.167 0)" data-character="L" fill="#e8ebef" stroke="none" fill-rule="evenodd"><path d="M7.917 100.0V-0.139H29.444V78.333H107.917V100.0Z"></path></g><g transform="translate(367.361 0)" data-character="U" fill="#e8ebef" stroke="none" fill-rule="evenodd"><path d="M28.056 100.0Q22.431 100.0 17.7435 97.22200000000001Q13.056 94.444 10.277999999999999 89.7565Q7.5 85.069 7.5 79.444V0.0H29.028V78.333Q29.028 78.333 29.028 78.333Q29.028 78.333 29.028 78.333H85.694Q85.694 78.333 85.694 78.333Q85.694 78.333 85.694 78.333V0.0H107.5V79.444Q107.5 85.069 104.65299999999999 89.7565Q101.806 94.444 97.16149999999999 97.22200000000001Q92.517 100.0 86.944 100.0H28.056Z"></path></g><g transform="translate(492.361 0)" data-character="M" fill="#e8ebef" stroke="none" fill-rule="evenodd"><path d="M7.778 100.0V0.0H30.0L63.889 40.417L97.639 0.0H120.0V100.0H98.333V32.917L63.889 74.028L29.306 33.056V100.0Z"></path></g><g transform="translate(631.25 0)" data-character="B" fill="#e8ebef" stroke="none" fill-rule="evenodd"><path d="M8.194 100.0V0.0H83.75Q89.323 0.0 93.967 2.778Q98.611 5.556 101.4585 10.2435Q104.306 14.931 104.306 20.556V39.306Q104.306 41.111 104.0975 42.7085Q103.889 44.306 103.333 45.694Q105.417 48.333 106.8055 51.805499999999995Q108.194 55.278 108.194 58.75V79.444Q108.194 85.069 105.34700000000001 89.7565Q102.5 94.444 97.8125 97.22200000000001Q93.125 100.0 87.5 100.0H8.194ZM29.722 78.333H86.389Q86.389 78.333 86.389 78.333Q86.389 78.333 86.389 78.333V60.0Q86.389 60.0 86.389 60.0Q86.389 60.0 86.389 60.0H29.722Q29.722 60.0 29.722 60.0Q29.722 60.0 29.722 60.0V78.333Q29.722 78.333 29.722 78.333Q29.722 78.333 29.722 78.333ZM29.722 38.333H82.5Q82.5 38.333 82.5 38.333Q82.5 38.333 82.5 38.333V21.667Q82.5 21.667 82.5 21.667Q82.5 21.667 82.5 21.667H29.722Q29.722 21.667 29.722 21.667Q29.722 21.667 29.722 21.667V38.333Q29.722 38.333 29.722 38.333Q29.722 38.333 29.722 38.333Z"></path></g><g transform="translate(756.806 0)" data-character="I" fill="#e8ebef" stroke="none" fill-rule="evenodd"><path d="M4.306 100.0V0.0H25.556V100.0Z"></path></g><g transform="translate(796.528 0)" data-character="A" fill="#e8ebef" stroke="none" fill-rule="evenodd"><path d="M8.056 100.0V20.556Q8.056 14.931 10.8335 10.2435Q13.611 5.556 18.2985 2.778Q22.986 0.0 28.611 0.0H87.361Q92.986 0.0 97.6735 2.778Q102.361 5.556 105.2085 10.2435Q108.056 14.931 108.056 20.556V100.0H86.25V67.778H29.583V100.0H8.056ZM29.583 46.111H86.25V21.667Q86.25 21.667 86.25 21.667Q86.25 21.667 86.25 21.667H29.583Q29.583 21.667 29.583 21.667Q29.583 21.667 29.583 21.667V46.111Z"></path></g></g></g></g></svg>