<svg xmlns="http://www.w3.org/2000/svg" viewBox="0 0 330 100" width="330" height="100"><title>1988 · before reconstruction</title><metadata>{&quot;id&quot;:&quot;1988&quot;,&quot;source&quot;:&quot;https://www.bcpl8s.ca/images/Decals/Passenger/1988.jpg&quot;,&quot;month&quot;:&quot;FEB&quot;,&quot;control&quot;:&quot;23633016&quot;,&quot;system&quot;:&quot;split-panel&quot;,&quot;accuracy&quot;:&quot;source-reviewed layout; candidate fonts and colour approximate&quot;}</metadata><g data-role="renewal-decal" data-accuracy="approximate"><rect x="0" y="0" width="330" height="100" rx="0" fill="#042e8f"></rect><g data-role="decal-month" data-die="bc-legend-condensed" data-fit="reduced" role="img" aria-label="FEB"><title>FEB</title><g transform="translate(6.6 23.071) scale(0.58929)" fill="none" stroke="#c2c5c4" stroke-width="14" stroke-linecap="square" stroke-linejoin="round"><g transform="translate(0 0)" data-character="F"><path d="M43 7 H7 V93"></path><path d="M7 50 H36"></path></g><g transform="translate(59 0)" data-character="E"><path d="M43 7 H7 V93 H43"></path><path d="M7 50 H36"></path></g><g transform="translate(118 0)" data-character="B"><path d="M7 93 V7"></path><path d="M7 7 H23.75 H23.75 A16.75 16.75 0 0 1 40.5 23.75 V28.5 V33.25 A16.75 16.75 0 0 1 23.75 50 H23.75 H7"></path><path d="M7 50 H25 H25 A18 18 0 0 1 43 68 V71.5 V75 A18 18 0 0 1 25 93 H25 H7"></path></g></g></g><g data-role="decal-year" data-die="bc-legend-condensed" data-fit="natural" role="img" aria-label="88"><title>88</title><g transform="translate(251.46 16) scale(0.66)" fill="none" stroke="#c2c5c4" stroke-width="14" stroke-linecap="square" stroke-linejoin="round"><g transform="translate(0 0)" data-character="8"><path d="M25 7 H25 A15.5 15.5 0 0 1 40.5 22.5 V28.5 V34.5 A15.5 15.5 0 0 1 25 50 H25 H25 A15.5 15.5 0 0 1 9.5 34.5 V28.5 V22.5 A15.5 15.5 0 0 1 25 7 H25 Z"></path><path d="M25 50 H25 A18 18 0 0 1 43 68 V71.5 V75 A18 18 0 0 1 25 93 H25 H25 A18 18 0 0 1 7 75 V71.5 V68 A18 18 0 0 1 25 50 H25 Z"></path></g><g transform="translate(59 0)" data-character="8"><path d="M25 7 H25 A15.5 15.5 0 0 1 40.5 22.5 V28.5 V34.5 A15.5 15.5 0 0 1 25 50 H25 H25 A15.5 15.5 0 0 1 9.5 34.5 V28.5 V22.5 A15.5 15.5 0 0 1 25 7 H25 Z"></path><path d="M25 50 H25 A18 18 0 0 1 43 68 V71.5 V75 A18 18 0 0 1 25 93 H25 H25 A18 18 0 0 1 7 75 V71.5 V68 A18 18 0 0 1 25 50 H25 Z"></path></g></g></g><g data-role="decal-legend" data-die="bc-legend-condensed" data-fit="natural" role="img" aria-label="BRITISH"><title>BRITISH</title><g transform="translate(136.68 12) scale(0.16)" fill="none" stroke="#c2c5c4" stroke-width="14" stroke-linecap="square" stroke-linejoin="round"><g transform="translate(0 0)" data-character="B"><path d="M7 93 V7"></path><path d="M7 7 H23.75 H23.75 A16.75 16.75 0 0 1 40.5 23.75 V28.5 V33.25 A16.75 16.75 0 0 1 23.75 50 H23.75 H7"></path><path d="M7 50 H25 H25 A18 18 0 0 1 43 68 V71.5 V75 A18 18 0 0 1 25 93 H25 H7"></path></g><g transform="translate(59 0)" data-character="R"><path d="M7 93 V7"></path><path d="M7 7 H25 H25 A18 18 0 0 1 43 25 V29.5 V34 A18 18 0 0 1 25 52 H25 H7"></path><path d="M18 52 H25 L43 93"></path></g><g transform="translate(118 0)" data-character="I"><path d="M12.5 7 V93"></path></g><g transform="translate(152 0)" data-character="T"><path d="M7 7 H43"></path><path d="M25 7 V93"></path></g><g transform="translate(211 0)" data-character="I"><path d="M12.5 7 V93"></path></g><g transform="translate(245 0)" data-character="S"><path d="M43 23 C43 3 7 3 7 31 C7 48 43 46 43 69 C43 97 7 97 7 77"></path></g><g transform="translate(304 0)" data-character="H"><path d="M7 7 V93"></path><path d="M43 7 V93"></path><path d="M7 50 H43"></path></g></g></g><g data-role="decal-legend" data-die="bc-legend-condensed" data-fit="natural" role="img" aria-label="COLUMBIA"><title>COLUMBIA</title><g transform="translate(129.16 34) scale(0.16)" fill="none" stroke="#c2c5c4" stroke-width="14" stroke-linecap="square" stroke-linejoin="round"><g transform="translate(0 0)" data-character="C"><path d="M43 25.92 Q43 7 25 7 H25 A18 18 0 0 0 7 25 V50 V75 A18 18 0 0 0 25 93 H25 Q43 93 43 74.08"></path></g><g transform="translate(59 0)" data-character="O"><path d="M25 7 H25 A18 18 0 0 1 43 25 V50 V75 A18 18 0 0 1 25 93 H25 H25 A18 18 0 0 1 7 75 V50 V25 A18 18 0 0 1 25 7 H25 Z"></path></g><g transform="translate(118 0)" data-character="L"><path d="M7 7 V93 H43"></path></g><g transform="translate(177 0)" data-character="U"><path d="M7 7 V75 A18 18 0 0 0 43 75 V7"></path></g><g transform="translate(236 0)" data-character="M"><path d="M7 93 V7 L30 64 L53 7 V93"></path></g><g transform="translate(305 0)" data-character="B"><path d="M7 93 V7"></path><path d="M7 7 H23.75 H23.75 A16.75 16.75 0 0 1 40.5 23.75 V28.5 V33.25 A16.75 16.75 0 0 1 23.75 50 H23.75 H7"></path><path d="M7 50 H25 H25 A18 18 0 0 1 43 68 V71.5 V75 A18 18 0 0 1 25 93 H25 H7"></path></g><g transform="translate(364 0)" data-character="I"><path d="M12.5 7 V93"></path></g><g transform="translate(398 0)" data-character="A"><path d="M7 93 L25 7 L43 93"></path><path d="M15.5 66 H34.5"></path></g></g></g><g data-role="decal-serial" data-die="bc-legend-condensed" data-fit="natural" role="img" aria-label="23633016"><title>23633016</title><g transform="translate(121.2 66) scale(0.2)" fill="none" stroke="#c2c5c4" stroke-width="14" stroke-linecap="square" stroke-linejoin="round"><g transform="translate(0 0)" data-character="2"><path d="M7 25 C7 3 43 3 43 33 C43 56 7 71 7 93 H43"></path></g><g transform="translate(59 0)" data-character="3"><path d="M13 7 H24 H24 A17 17 0 0 1 41 24 V28.5 V33 A17 17 0 0 1 24 50 H24 H13"></path><path d="M13 50 H25 H25 A18 18 0 0 1 43 68 V71.5 V75 A18 18 0 0 1 25 93 H25 H13"></path></g><g transform="translate(118 0)" data-character="6"><path d="M25 42 H25 A18 18 0 0 1 43 60 V67.5 V75 A18 18 0 0 1 25 93 H25 H25 A18 18 0 0 1 7 75 V67.5 V60 A18 18 0 0 1 25 42 H25 Z"></path><path d="M7 71 C5 34 21 11 37 7"></path></g><g transform="translate(177 0)" data-character="3"><path d="M13 7 H24 H24 A17 17 0 0 1 41 24 V28.5 V33 A17 17 0 0 1 24 50 H24 H13"></path><path d="M13 50 H25 H25 A18 18 0 0 1 43 68 V71.5 V75 A18 18 0 0 1 25 93 H25 H13"></path></g><g transform="translate(236 0)" data-character="3"><path d="M13 7 H24 H24 A17 17 0 0 1 41 24 V28.5 V33 A17 17 0 0 1 24 50 H24 H13"></path><path d="M13 50 H25 H25 A18 18 0 0 1 43 68 V71.5 V75 A18 18 0 0 1 25 93 H25 H13"></path></g><g transform="translate(295 0)" data-character="0"><path d="M25 7 H25 A18 18 0 0 1 43 25 V50 V75 A18 18 0 0 1 25 93 H25 H25 A18 18 0 0 1 7 75 V50 V25 A18 18 0 0 1 25 7 H25 Z"></path></g><g transform="translate(354 0)" data-character="1"><path d="M12.5 7 V93"></path></g><g transform="translate(388 0)" data-character="6"><path d="M25 42 H25 A18 18 0 0 1 43 60 V67.5 V75 A18 18 0 0 1 25 93 H25 H25 A18 18 0 0 1 7 75 V67.5 V60 A18 18 0 0 1 25 42 H25 Z"></path><path d="M7 71 C5 34 21 11 37 7"></path></g></g></g></g></svg>