<svg xmlns="http://www.w3.org/2000/svg" viewBox="-7 -7 381.59 114" height="220" role="img" aria-label="global JA7 91L"><g transform="translate(0 0)"><g fill="none" stroke="currentColor" stroke-width="11" stroke-linecap="square" stroke-linejoin="round"><path d="M47.5 5.5 V70.5 Q47.5 94.5 26.5 94.5 Q5.5 94.5 5.5 70.5"/></g></g><g transform="translate(61 0)"><g fill="none" stroke="currentColor" stroke-width="11" stroke-linecap="square" stroke-linejoin="round"><path d="M5.5 94.5 L26.5 5.5 L47.5 94.5"/><path d="M14.51 66 H38.49"/></g></g><g transform="translate(122 0)"><g fill="none" stroke="currentColor" stroke-width="11" stroke-linecap="square" stroke-linejoin="round"><path d="M5.5 5.5 H47.5 C43.26 38 24.5 62 22.5 94.5"/></g></g><g transform="translate(183 0)"><g fill="none" stroke="currentColor" stroke-width="11" stroke-linecap="square" stroke-linejoin="round"></g></g><g transform="translate(214.85 0)"><g fill="none" stroke="currentColor" stroke-width="11" stroke-linecap="square" stroke-linejoin="round"><path d="M26.5 5.5 H26.5 A21 21 0 0 1 47.5 26.5 V31.75 V37 A21 21 0 0 1 26.5 58 H26.5 H26.5 A21 21 0 0 1 5.5 37 V31.75 V26.5 A21 21 0 0 1 26.5 5.5 H26.5 Z"/><path d="M47.5 29 C49.5 66 30.5 90.5 11.5 94.5"/></g></g><g transform="translate(275.85 0)"><g fill="none" stroke="currentColor" stroke-width="11" stroke-linecap="square" stroke-linejoin="round"><path d="M6.5 23.5 L19.06 5.5 V94.5"/></g></g><g transform="translate(314.59 0)"><g fill="none" stroke="currentColor" stroke-width="11" stroke-linecap="square" stroke-linejoin="round"><path d="M5.5 5.5 V94.5 H47.5"/></g></g></svg>