<svg xmlns="http://www.w3.org/2000/svg" viewBox="-7 -7 381.59 114" height="220" role="img" aria-label="current JA7 91L"><g transform="translate(0 0)"><g fill="none" stroke="currentColor" stroke-width="11" stroke-linecap="square" stroke-linejoin="round"><path d="M47.5 5.5 V70.5 Q47.5 94.5 26.5 94.5 Q5.5 94.5 5.5 70.5"/></g></g><g transform="translate(61 0)"><g fill="none" stroke="currentColor" stroke-width="11" stroke-linecap="square" stroke-linejoin="round"><path d="M5.5 94.5 L26.5 5.5 L47.5 94.5"/><path d="M14.51 66 H38.49"/></g></g><g transform="translate(122 0)"><g fill="none" stroke="currentColor" stroke-width="11" stroke-linecap="square" stroke-linejoin="round"><path d="M5.5 5.5 H47.5 L20.34 94.5"/></g></g><g transform="translate(183 0)"><g fill="none" stroke="currentColor" stroke-width="11" stroke-linecap="square" stroke-linejoin="round"></g></g><g transform="translate(214.85 0)"><g fill="none" stroke="currentColor" stroke-width="11" stroke-linecap="square" stroke-linejoin="round"><path d="M26.5 5.5 C38.1 5.5 47.5 17.25 47.5 31.75 C47.5 46.25 38.1 58 26.5 58 C14.9 58 5.5 46.25 5.5 31.75 C5.5 17.25 14.9 5.5 26.5 5.5 Z"/><path d="M47.5 29 C49.5 66 30.5 90.5 11.5 94.5"/></g></g><g transform="translate(275.85 0)"><g fill="none" stroke="currentColor" stroke-width="11" stroke-linecap="square" stroke-linejoin="round"><path d="M6.5 23.5 L19.06 5.5 V94.5"/></g></g><g transform="translate(314.59 0)"><g fill="none" stroke="currentColor" stroke-width="11" stroke-linecap="square" stroke-linejoin="round"><path d="M5.5 5.5 V94.5 H47.5"/></g></g></svg>