<svg xmlns="http://www.w3.org/2000/svg" viewBox="0 0 300 150" width="300" height="150" role="img" aria-label="Canada · CANADA · red leaves, five digits · 34646"><title>Canada · CANADA · red leaves, five digits · 34646</title><desc>World License Plates captions its black-number examples 1970s–1980s. License Plate Mania shows a related dark-green-number example without a date. Both palettes are provided; identical tooling is not certified. Photographic layout reconstruction: shell dimensions are illustrative estimates; serial and smaller lettering use independent constructed candidates, not traced or authenticated dies. Validation checks an observed pattern subset, not a real registration or complete allocation. Website publication stamps are not issue dates.</desc><metadata>{&quot;jurisdiction&quot;:&quot;CA&quot;,&quot;recipe&quot;:&quot;federal-canada-red-leaves&quot;,&quot;status&quot;:&quot;issued&quot;,&quot;physicalMm&quot;:{&quot;width&quot;:300,&quot;height&quot;:150},&quot;serial&quot;:&quot;34646&quot;,&quot;parts&quot;:{&quot;serial&quot;:&quot;34646&quot;,&quot;palette&quot;:&quot;green&quot;,&quot;finish&quot;:&quot;flat&quot;},&quot;source&quot;:{&quot;title&quot;:&quot;CANADA · red leaves, five digits · source gallery&quot;,&quot;url&quot;:&quot;http://www.worldlicenseplates.com/world/CN_CDNX.html&quot;},&quot;construction&quot;:&quot;embossed&quot;,&quot;dies&quot;:{&quot;serial&quot;:&quot;ca-federal-rounded&quot;,&quot;evidence&quot;:&quot;category&quot;,&quot;fit&quot;:&quot;natural&quot;},&quot;renewal&quot;:null,&quot;accuracy&quot;:{&quot;artwork&quot;:&quot;Schematic maple emblems and validation panels; tiny seal details and microtext omitted.&quot;,&quot;dies&quot;:&quot;category&quot;,&quot;paint&quot;:&quot;uncalibrated digital approximation&quot;,&quot;allocations&quot;:&quot;supported subset only&quot;},&quot;note&quot;:&quot;World License Plates captions its black-number examples 1970s–1980s. License Plate Mania shows a related dark-green-number example without a date. Both palettes are provided; identical tooling is not certified. Photographic layout reconstruction: shell dimensions are illustrative estimates; serial and smaller lettering use independent constructed candidates, not traced or authenticated dies. Validation checks an observed pattern subset, not a real registration or complete allocation. Website publication stamps are not issue dates.&quot;}</metadata><defs><mask id="ref-10-holes" maskUnits="userSpaceOnUse" x="0" y="0" width="300" height="150"><rect width="300" height="150" fill="white"></rect><rect x="50" y="7.900000000000002" width="20" height="5.2" rx="2.6" fill="black"></rect><rect x="50" y="136.9" width="20" height="5.2" rx="2.6" fill="black"></rect><rect x="230" y="7.900000000000002" width="20" height="5.2" rx="2.6" fill="black"></rect><rect x="230" y="136.9" width="20" height="5.2" rx="2.6" fill="black"></rect></mask><clipPath id="ref-10-shell"><rect width="300" height="150" rx="6"></rect></clipPath><filter id="ref-10-lift" x="-10%" y="-10%" width="125%" height="130%"><feDropShadow dx="0.8" dy="1.1" stdDeviation="0.8" flood-color="#000" flood-opacity="0.4"></feDropShadow></filter><filter id="ref-10-relief" x="-5%" y="-10%" width="110%" height="125%"><feDropShadow dx="0.6" dy="0.7" stdDeviation="0.25" flood-color="#000" flood-opacity="0.3"></feDropShadow></filter></defs><g mask="url(#ref-10-holes)"><rect width="300" height="150" rx="6" fill="#f3f1e8" data-role="base"></rect><g clip-path="url(#ref-10-shell)" color="#385647" data-role="artwork"><g data-role="maple" data-art="federal-maple" data-accuracy="approximate" color="#b7302f" transform="translate(10.500 12.750) scale(0.78750 0.78750)"><path d="M20 1 L23 8 L27 6 L25.5 16 L31 10 L33 14 L38.5 12.5 L35.5 20 L37.5 22 L29 28.5 L30.5 32 L21 30.5 L21 39 L19 39 L19 30.5 L9.5 32 L11 28.5 L2.5 22 L4.5 20 L1.5 12.5 L7 14 L9 10 L14.5 16 L13 6 L17 8 Z" fill="currentColor"></path></g><g data-role="maple" data-art="federal-maple" data-accuracy="approximate" color="#b7302f" transform="translate(258.000 12.750) scale(0.78750 0.78750)"><path d="M20 1 L23 8 L27 6 L25.5 16 L31 10 L33 14 L38.5 12.5 L35.5 20 L37.5 22 L29 28.5 L30.5 32 L21 30.5 L21 39 L19 39 L19 30.5 L9.5 32 L11 28.5 L2.5 22 L4.5 20 L1.5 12.5 L7 14 L9 10 L14.5 16 L13 6 L17 8 Z" fill="currentColor"></path></g></g><rect x="3" y="3" width="294" height="144" rx="3" fill="none" stroke="#385647" stroke-width="1"></rect><g><g data-role="legend" data-die="ca-federal-legend" data-fit="natural" role="img" aria-label="CANADA"><title>CANADA</title><g transform="translate(104.1 13.5) scale(0.225)" fill="none" stroke="#385647" stroke-width="8" stroke-linecap="square" stroke-linejoin="round"><g transform="translate(0 0)" data-character="C"><path d="M49 24 Q49 4 26.5 4 H26.5 A22.5 22.5 0 0 0 4 26.5 V50 V73.5 A22.5 22.5 0 0 0 26.5 96 H26.5 Q49 96 49 76"></path></g><g transform="translate(71 0)" data-character="A"><path d="M4 96 L26.5 4 L49 96"></path><path d="M13.01 66 H39.99"></path></g><g transform="translate(142 0)" data-character="N"><path d="M4 96 V4 L49 96 V4"></path></g><g transform="translate(213 0)" data-character="A"><path d="M4 96 L26.5 4 L49 96"></path><path d="M13.01 66 H39.99"></path></g><g transform="translate(284 0)" data-character="D"><path d="M4 96 V4"></path><path d="M4 4 H26.5 H26.5 A22.5 22.5 0 0 1 49 26.5 V50 V73.5 A22.5 22.5 0 0 1 26.5 96 H26.5 H4"></path></g><g transform="translate(355 0)" data-character="A"><path d="M4 96 L26.5 4 L49 96"></path><path d="M13.01 66 H39.99"></path></g></g></g><g data-role="serial" data-die="ca-federal-rounded" data-fit="natural" role="img" aria-label="34646"><title>34646</title><g transform="translate(30.12 46.5) scale(0.72)" fill="none" stroke="#385647" stroke-width="11" stroke-linecap="square" stroke-linejoin="round"><g transform="translate(0 0)" data-character="3"><path d="M12.34 5.5 H27.36 C39.43 5.5 49.22 15.46 49.22 27.75 C49.22 40.04 39.43 50 27.36 50 H12.34"></path><path d="M12.34 50 H28.5 C41.2 50 51.5 59.96 51.5 72.25 C51.5 84.54 41.2 94.5 28.5 94.5 H12.34"></path></g><g transform="translate(69 0)" data-character="4"><path d="M10.06 5.5 L5.5 68 H51.5"></path><path d="M40.1 23.5 V94.5"></path></g><g transform="translate(138 0)" data-character="6"><path d="M28.5 42 C41.2 42 51.5 53.75 51.5 68.25 C51.5 82.75 41.2 94.5 28.5 94.5 C15.8 94.5 5.5 82.75 5.5 68.25 C5.5 53.75 15.8 42 28.5 42 Z"></path><path d="M5.5 71 C3.5 34 24.5 9.5 45.5 5.5"></path></g><g transform="translate(207 0)" data-character="4"><path d="M10.06 5.5 L5.5 68 H51.5"></path><path d="M40.1 23.5 V94.5"></path></g><g transform="translate(276 0)" data-character="6"><path d="M28.5 42 C41.2 42 51.5 53.75 51.5 68.25 C51.5 82.75 41.2 94.5 28.5 94.5 C15.8 94.5 5.5 82.75 5.5 68.25 C5.5 53.75 15.8 42 28.5 42 Z"></path><path d="M5.5 71 C3.5 34 24.5 9.5 45.5 5.5"></path></g></g></g></g></g></svg>
