<svg xmlns="http://www.w3.org/2000/svg" viewBox="0 0 300 150" width="300" height="150" role="img" aria-label="Canada · CANADA · green leaves, five digits · 64616"><title>Canada · CANADA · green leaves, five digits · 64616</title><desc>Green leaves and narrower, lighter green numerals; source captions military vehicles in Canada and overseas, 1970s–1980s. Kept separate from the heavier red-leaf examples. Photographic layout reconstruction: shell dimensions are illustrative estimates; serial and smaller lettering use independent constructed candidates, not traced or authenticated dies. Validation checks an observed pattern subset, not a real registration or complete allocation. Website publication stamps are not issue dates.</desc><metadata>{&quot;jurisdiction&quot;:&quot;CA&quot;,&quot;recipe&quot;:&quot;federal-canada-green-leaves&quot;,&quot;status&quot;:&quot;issued&quot;,&quot;physicalMm&quot;:{&quot;width&quot;:300,&quot;height&quot;:150},&quot;serial&quot;:&quot;64616&quot;,&quot;parts&quot;:{&quot;serial&quot;:&quot;64616&quot;,&quot;finish&quot;:&quot;flat&quot;},&quot;source&quot;:{&quot;title&quot;:&quot;CANADA · green leaves, five digits · source gallery&quot;,&quot;url&quot;:&quot;http://www.worldlicenseplates.com/world/CN_CDNX.html&quot;},&quot;construction&quot;:&quot;embossed&quot;,&quot;dies&quot;:{&quot;serial&quot;:&quot;ca-federal-narrow&quot;,&quot;evidence&quot;:&quot;category&quot;,&quot;fit&quot;:&quot;natural&quot;},&quot;renewal&quot;:null,&quot;accuracy&quot;:{&quot;artwork&quot;:&quot;Schematic maple emblems and validation panels; tiny seal details and microtext omitted.&quot;,&quot;dies&quot;:&quot;category&quot;,&quot;paint&quot;:&quot;uncalibrated digital approximation&quot;,&quot;allocations&quot;:&quot;supported subset only&quot;},&quot;note&quot;:&quot;Green leaves and narrower, lighter green numerals; source captions military vehicles in Canada and overseas, 1970s–1980s. Kept separate from the heavier red-leaf examples. Photographic layout reconstruction: shell dimensions are illustrative estimates; serial and smaller lettering use independent constructed candidates, not traced or authenticated dies. Validation checks an observed pattern subset, not a real registration or complete allocation. Website publication stamps are not issue dates.&quot;}</metadata><defs><mask id="ref-12-holes" maskUnits="userSpaceOnUse" x="0" y="0" width="300" height="150"><rect width="300" height="150" fill="white"></rect><rect x="50" y="7.900000000000002" width="20" height="5.2" rx="2.6" fill="black"></rect><rect x="50" y="136.9" width="20" height="5.2" rx="2.6" fill="black"></rect><rect x="230" y="7.900000000000002" width="20" height="5.2" rx="2.6" fill="black"></rect><rect x="230" y="136.9" width="20" height="5.2" rx="2.6" fill="black"></rect></mask><clipPath id="ref-12-shell"><rect width="300" height="150" rx="6"></rect></clipPath><filter id="ref-12-lift" x="-10%" y="-10%" width="125%" height="130%"><feDropShadow dx="0.8" dy="1.1" stdDeviation="0.8" flood-color="#000" flood-opacity="0.4"></feDropShadow></filter><filter id="ref-12-relief" x="-5%" y="-10%" width="110%" height="125%"><feDropShadow dx="0.6" dy="0.7" stdDeviation="0.25" flood-color="#000" flood-opacity="0.3"></feDropShadow></filter></defs><g mask="url(#ref-12-holes)"><rect width="300" height="150" rx="6" fill="#f3f1e8" data-role="base"></rect><g clip-path="url(#ref-12-shell)" color="#245440" data-role="artwork"><g data-role="maple" data-art="federal-maple" data-accuracy="approximate" color="#245440" transform="translate(10.500 12.750) scale(0.78750 0.78750)"><path d="M20 1 L23 8 L27 6 L25.5 16 L31 10 L33 14 L38.5 12.5 L35.5 20 L37.5 22 L29 28.5 L30.5 32 L21 30.5 L21 39 L19 39 L19 30.5 L9.5 32 L11 28.5 L2.5 22 L4.5 20 L1.5 12.5 L7 14 L9 10 L14.5 16 L13 6 L17 8 Z" fill="currentColor"></path></g><g data-role="maple" data-art="federal-maple" data-accuracy="approximate" color="#245440" transform="translate(258.000 12.750) scale(0.78750 0.78750)"><path d="M20 1 L23 8 L27 6 L25.5 16 L31 10 L33 14 L38.5 12.5 L35.5 20 L37.5 22 L29 28.5 L30.5 32 L21 30.5 L21 39 L19 39 L19 30.5 L9.5 32 L11 28.5 L2.5 22 L4.5 20 L1.5 12.5 L7 14 L9 10 L14.5 16 L13 6 L17 8 Z" fill="currentColor"></path></g></g><rect x="3" y="3" width="294" height="144" rx="3" fill="none" stroke="#245440" stroke-width="1"></rect><g><g data-role="legend" data-die="ca-federal-legend" data-fit="natural" role="img" aria-label="CANADA"><title>CANADA</title><g transform="translate(104.1 13.5) scale(0.225)" fill="none" stroke="#245440" stroke-width="8" stroke-linecap="square" stroke-linejoin="round"><g transform="translate(0 0)" data-character="C"><path d="M49 24 Q49 4 26.5 4 H26.5 A22.5 22.5 0 0 0 4 26.5 V50 V73.5 A22.5 22.5 0 0 0 26.5 96 H26.5 Q49 96 49 76"></path></g><g transform="translate(71 0)" data-character="A"><path d="M4 96 L26.5 4 L49 96"></path><path d="M13.01 66 H39.99"></path></g><g transform="translate(142 0)" data-character="N"><path d="M4 96 V4 L49 96 V4"></path></g><g transform="translate(213 0)" data-character="A"><path d="M4 96 L26.5 4 L49 96"></path><path d="M13.01 66 H39.99"></path></g><g transform="translate(284 0)" data-character="D"><path d="M4 96 V4"></path><path d="M4 4 H26.5 H26.5 A22.5 22.5 0 0 1 49 26.5 V50 V73.5 A22.5 22.5 0 0 1 26.5 96 H26.5 H4"></path></g><g transform="translate(355 0)" data-character="A"><path d="M4 96 L26.5 4 L49 96"></path><path d="M13.01 66 H39.99"></path></g></g></g><g data-role="serial" data-die="ca-federal-narrow" data-fit="natural" role="img" aria-label="64616"><title>64616</title><g transform="translate(56.096 45) scale(0.765)" fill="none" stroke="#245440" stroke-width="9" stroke-linecap="square" stroke-linejoin="round"><g transform="translate(0 0)" data-character="6"><path d="M21.5 42 H21.5 A17 17 0 0 1 38.5 59 V68.75 V78.5 A17 17 0 0 1 21.5 95.5 H21.5 H21.5 A17 17 0 0 1 4.5 78.5 V68.75 V59 A17 17 0 0 1 21.5 42 H21.5 Z"></path><path d="M4.5 71 C2.5 34 17.5 8.5 32.5 4.5"></path></g><g transform="translate(56 0)" data-character="4"><path d="M29.9 95.5 V4.5 L4.5 68 H38.5"></path></g><g transform="translate(112 0)" data-character="6"><path d="M21.5 42 H21.5 A17 17 0 0 1 38.5 59 V68.75 V78.5 A17 17 0 0 1 21.5 95.5 H21.5 H21.5 A17 17 0 0 1 4.5 78.5 V68.75 V59 A17 17 0 0 1 21.5 42 H21.5 Z"></path><path d="M4.5 71 C2.5 34 17.5 8.5 32.5 4.5"></path></g><g transform="translate(168 0)" data-character="1"><path d="M5.5 22.5 L13.33 4.5 V95.5"></path></g><g transform="translate(202.5 0)" data-character="6"><path d="M21.5 42 H21.5 A17 17 0 0 1 38.5 59 V68.75 V78.5 A17 17 0 0 1 21.5 95.5 H21.5 H21.5 A17 17 0 0 1 4.5 78.5 V68.75 V59 A17 17 0 0 1 21.5 42 H21.5 Z"></path><path d="M4.5 71 C2.5 34 17.5 8.5 32.5 4.5"></path></g></g></g></g></g></svg>
