<svg xmlns="http://www.w3.org/2000/svg" viewBox="0 0 300 150" width="300" height="150" role="img" aria-label="Canada · Germany · blue maple separator · ZJ11-C"><title>Canada · Germany · blue maple separator · ZJ11-C</title><desc>Source captions 1957–1960. White maple between the four-character run and final letter; no CANADA header. Photographic layout reconstruction: shell dimensions are illustrative estimates; serial and smaller lettering use independent constructed candidates, not traced or authenticated dies. Validation checks an observed pattern subset, not a real registration or complete allocation. Website publication stamps are not issue dates.</desc><metadata>{&quot;jurisdiction&quot;:&quot;CA&quot;,&quot;recipe&quot;:&quot;federal-germany-blue-maple-1957&quot;,&quot;status&quot;:&quot;issued&quot;,&quot;physicalMm&quot;:{&quot;width&quot;:300,&quot;height&quot;:150},&quot;serial&quot;:&quot;ZJ11-C&quot;,&quot;parts&quot;:{&quot;serial&quot;:&quot;ZJ11-C&quot;,&quot;finish&quot;:&quot;flat&quot;},&quot;source&quot;:{&quot;title&quot;:&quot;Germany · blue maple separator · source gallery&quot;,&quot;url&quot;:&quot;http://www.worldlicenseplates.com/world/EU_GMIL.html#CN&quot;},&quot;construction&quot;:&quot;embossed&quot;,&quot;dies&quot;:{&quot;serial&quot;:&quot;ca-federal-narrow&quot;,&quot;evidence&quot;:&quot;category&quot;,&quot;fit&quot;:&quot;natural&quot;},&quot;renewal&quot;:null,&quot;accuracy&quot;:{&quot;artwork&quot;:&quot;Schematic maple emblems and validation panels; tiny seal details and microtext omitted.&quot;,&quot;dies&quot;:&quot;category&quot;,&quot;paint&quot;:&quot;uncalibrated digital approximation&quot;,&quot;allocations&quot;:&quot;supported subset only&quot;},&quot;note&quot;:&quot;Source captions 1957–1960. White maple between the four-character run and final letter; no CANADA header. Photographic layout reconstruction: shell dimensions are illustrative estimates; serial and smaller lettering use independent constructed candidates, not traced or authenticated dies. Validation checks an observed pattern subset, not a real registration or complete allocation. Website publication stamps are not issue dates.&quot;}</metadata><defs><mask id="ref-18-holes" maskUnits="userSpaceOnUse" x="0" y="0" width="300" height="150"><rect width="300" height="150" fill="white"></rect><rect x="50" y="7.900000000000002" width="20" height="5.2" rx="2.6" fill="black"></rect><rect x="50" y="136.9" width="20" height="5.2" rx="2.6" fill="black"></rect><rect x="230" y="7.900000000000002" width="20" height="5.2" rx="2.6" fill="black"></rect><rect x="230" y="136.9" width="20" height="5.2" rx="2.6" fill="black"></rect></mask><clipPath id="ref-18-shell"><rect width="300" height="150" rx="6"></rect></clipPath><filter id="ref-18-lift" x="-10%" y="-10%" width="125%" height="130%"><feDropShadow dx="0.8" dy="1.1" stdDeviation="0.8" flood-color="#000" flood-opacity="0.4"></feDropShadow></filter><filter id="ref-18-relief" x="-5%" y="-10%" width="110%" height="125%"><feDropShadow dx="0.6" dy="0.7" stdDeviation="0.25" flood-color="#000" flood-opacity="0.3"></feDropShadow></filter></defs><g mask="url(#ref-18-holes)"><rect width="300" height="150" rx="6" fill="#25264f" data-role="base"></rect><g clip-path="url(#ref-18-shell)" color="#eeeeda" data-role="artwork"></g><rect x="3" y="3" width="294" height="144" rx="3" fill="none" stroke="#eeeeda" stroke-width="1"></rect><g><g data-role="serial" aria-label="ZJ11-C"><g data-role="serial-left" data-die="ca-federal-narrow" data-fit="natural" role="img" aria-label="ZJ11"><title>ZJ11</title><g transform="translate(37.968 30) scale(0.915)" fill="none" stroke="#eeeeda" stroke-width="9" stroke-linecap="square" stroke-linejoin="round"><g transform="translate(0 0)" data-character="Z"><path d="M4.5 4.5 H38.5 L4.5 95.5 H38.5"></path></g><g transform="translate(56 0)" data-character="J"><path d="M38.5 4.5 V71.5 Q38.5 95.5 21.5 95.5 Q4.5 95.5 4.5 71.5"></path></g><g transform="translate(112 0)" data-character="1"><path d="M5.5 22.5 L13.33 4.5 V95.5"></path></g><g transform="translate(146.5 0)" data-character="1"><path d="M5.5 22.5 L13.33 4.5 V95.5"></path></g></g></g><g data-role="serial-separator" data-art="federal-maple" data-accuracy="approximate" color="#eeeeda" transform="translate(196.688 64.500) scale(0.52500 0.52500)"><path d="M20 1 L23 8 L27 6 L25.5 16 L31 10 L33 14 L38.5 12.5 L35.5 20 L37.5 22 L29 28.5 L30.5 32 L21 30.5 L21 39 L19 39 L19 30.5 L9.5 32 L11 28.5 L2.5 22 L4.5 20 L1.5 12.5 L7 14 L9 10 L14.5 16 L13 6 L17 8 Z" fill="currentColor"></path></g><g data-role="serial-right" data-die="ca-federal-narrow" data-fit="natural" role="img" aria-label="C"><title>C</title><g transform="translate(222.688 30) scale(0.915)" fill="none" stroke="#eeeeda" stroke-width="9" stroke-linecap="square" stroke-linejoin="round"><g transform="translate(0 0)" data-character="C"><path d="M38.5 24.5 Q38.5 4.5 21.5 4.5 H21.5 A17 17 0 0 0 4.5 21.5 V50 V78.5 A17 17 0 0 0 21.5 95.5 H21.5 Q38.5 95.5 38.5 75.5"></path></g></g></g></g></g></g></svg>
