<svg xmlns="http://www.w3.org/2000/svg" width="1580" height="1912" viewBox="0 0 1580 1912"><title>Iraqi canonical font profile proof</title><rect width="100%" height="100%" fill="#f4f2eb"/><text x="48" y="55" font-family="DejaVu Sans,sans-serif" font-size="32" fill="#13283b">IRAQ · REUSABLE FONT PROFILES</text><text x="48" y="92" font-family="DejaVu Sans,sans-serif" font-size="18" fill="#526475">Flat proofs • shared cap-height / baseline • original proportions • no photographs or source-positioned plates</text><text x="48" y="123" font-family="DejaVu Sans,sans-serif" font-size="18" fill="#526475">Missing characters are crossed boxes. ٠ keeps its native smaller size. Changing the serial reuses the same master outlines.</text><rect x="32" y="164" width="1516" height="220" rx="12" fill="#fffdf8" stroke="#d6dfdf"/><text x="52" y="198" font-family="DejaVu Sans,sans-serif" font-size="25" fill="#17374d">Sulaymaniyah private · observed subset</text><text x="52" y="227" font-family="DejaVu Sans,sans-serif" font-size="14" fill="#487663">OBSERVED SUBSET</text><path d="M50 355H1530M50 255H1530" fill="none" stroke="#dce7e5" stroke-dasharray="5 5"/><g fill="none" stroke="#a8aaa4" stroke-width="1.5"><rect x="66" y="255" width="58" height="100" stroke-dasharray="4 4"/><path d="M77 283L113 327M113 283L77 327"/></g><text x="84" y="376" font-family="DejaVu Sans,sans-serif" font-size="13" fill="#526475">0</text><g fill="none" stroke="#a8aaa4" stroke-width="1.5"><rect x="164" y="255" width="58" height="100" stroke-dasharray="4 4"/><path d="M175 283L211 327M211 283L175 327"/></g><text x="182" y="376" font-family="DejaVu Sans,sans-serif" font-size="13" fill="#526475">1</text><g transform="translate(258 355) scale(1)"><path d="M57.683 -98.052 46.209 -78.233C38.907 -81.362 32.649 -81.362 26.39 -79.276C26.39 -68.845 35.778 -54.241 35.778 -35.466C36.821 -20.862 33.692 -6.259 28.476 0H22.218C20.132 -16.69 14.916 -43.81 8.657 -56.328C0.313 -73.017 3.442 -87.621 15.959 -93.879C26.39 -100.138 38.907 -101.181 57.683 -98.052Z" fill="#13283b" fill-rule="evenodd"/></g><text x="280" y="376" font-family="DejaVu Sans,sans-serif" font-size="13" fill="#526475">2</text><g transform="translate(356 355) scale(1)"><path d="M4 -84.492 13.388 -99.095C21.733 -83.448 31.121 -78.233 40.509 -82.405C48.854 -85.535 48.854 -97.009 56.155 -99.095C62.414 -102.224 60.328 -91.793 61.371 -88.664C69.716 -85.535 72.845 -91.793 75.974 -98.052C78.06 -103.267 81.19 -98.052 81.19 -93.879C86.405 -75.104 69.716 -68.845 50.94 -66.759C46.767 -59.457 40.509 -59.457 37.379 -58.414C40.509 -42.767 45.724 -23.991 38.422 -8.345L32.164 0C35.293 -31.293 21.733 -53.198 15.474 -66.759L4 -84.492Z" fill="#13283b" fill-rule="evenodd"/></g><text x="378" y="376" font-family="DejaVu Sans,sans-serif" font-size="13" fill="#526475">3</text><g fill="none" stroke="#a8aaa4" stroke-width="1.5"><rect x="458" y="255" width="58" height="100" stroke-dasharray="4 4"/><path d="M469 283L505 327M505 283L469 327"/></g><text x="476" y="376" font-family="DejaVu Sans,sans-serif" font-size="13" fill="#526475">4</text><g fill="none" stroke="#a8aaa4" stroke-width="1.5"><rect x="556" y="255" width="58" height="100" stroke-dasharray="4 4"/><path d="M567 283L603 327M603 283L567 327"/></g><text x="574" y="376" font-family="DejaVu Sans,sans-serif" font-size="13" fill="#526475">5</text><g transform="translate(650 355) scale(1)"><path d="M4.933 -98.052C19.536 -93.879 38.312 -94.923 55.002 -99.095C61.261 -101.181 62.304 -92.836 62.304 -87.621C62.304 -58.414 68.562 -35.466 84.209 -18.776L77.95 0C52.916 -16.69 47.7 -37.552 45.614 -75.104C32.054 -74.06 14.321 -75.104 7.019 -77.19C2.847 -78.233 3.89 -91.793 4.933 -98.052Z" fill="#13283b" fill-rule="evenodd"/></g><text x="672" y="376" font-family="DejaVu Sans,sans-serif" font-size="13" fill="#526475">6</text><g fill="none" stroke="#a8aaa4" stroke-width="1.5"><rect x="752" y="255" width="58" height="100" stroke-dasharray="4 4"/><path d="M763 283L799 327M799 283L763 327"/></g><text x="770" y="376" font-family="DejaVu Sans,sans-serif" font-size="13" fill="#526475">7</text><g fill="none" stroke="#a8aaa4" stroke-width="1.5"><rect x="850" y="255" width="58" height="100" stroke-dasharray="4 4"/><path d="M861 283L897 327M897 283L861 327"/></g><text x="868" y="376" font-family="DejaVu Sans,sans-serif" font-size="13" fill="#526475">8</text><g transform="translate(944 355) scale(1)"><path d="M29.844 -100.138C47.577 -102.224 52.793 -88.664 55.922 -66.759C60.094 -43.81 64.267 -33.379 74.698 -20.862L68.439 0C48.62 -12.517 41.319 -28.164 37.146 -52.155C23.586 -49.026 8.982 -50.069 5.853 -62.586C-0.406 -77.19 10.025 -95.966 24.629 -99.095L29.844 -100.138ZM25.672 -80.319C21.5 -78.233 20.456 -75.104 20.456 -71.974C24.629 -69.888 29.844 -69.888 34.017 -70.931C32.974 -79.276 30.887 -81.362 25.672 -80.319Z" fill="#13283b" fill-rule="evenodd"/></g><text x="966" y="376" font-family="DejaVu Sans,sans-serif" font-size="13" fill="#526475">9</text><text x="1080" y="244" font-family="DejaVu Sans,sans-serif" font-size="14" fill="#526475">Reordered / live run</text><g transform="translate(1080 355) scale(0.69)"><path d="M4 -84.492 13.388 -99.095C21.733 -83.448 31.121 -78.233 40.509 -82.405C48.854 -85.535 48.854 -97.009 56.155 -99.095C62.414 -102.224 60.328 -91.793 61.371 -88.664C69.716 -85.535 72.845 -91.793 75.974 -98.052C78.06 -103.267 81.19 -98.052 81.19 -93.879C86.405 -75.104 69.716 -68.845 50.94 -66.759C46.767 -59.457 40.509 -59.457 37.379 -58.414C40.509 -42.767 45.724 -23.991 38.422 -8.345L32.164 0C35.293 -31.293 21.733 -53.198 15.474 -66.759L4 -84.492Z" fill="#13283b" fill-rule="evenodd"/></g><g transform="translate(1148.448813 355) scale(0.69)"><path d="M57.683 -98.052 46.209 -78.233C38.907 -81.362 32.649 -81.362 26.39 -79.276C26.39 -68.845 35.778 -54.241 35.778 -35.466C36.821 -20.862 33.692 -6.259 28.476 0H22.218C20.132 -16.69 14.916 -43.81 8.657 -56.328C0.313 -73.017 3.442 -87.621 15.959 -93.879C26.39 -100.138 38.907 -101.181 57.683 -98.052Z" fill="#13283b" fill-rule="evenodd"/></g><g transform="translate(1200.010083 355) scale(0.69)"><path d="M29.844 -100.138C47.577 -102.224 52.793 -88.664 55.922 -66.759C60.094 -43.81 64.267 -33.379 74.698 -20.862L68.439 0C48.62 -12.517 41.319 -28.164 37.146 -52.155C23.586 -49.026 8.982 -50.069 5.853 -62.586C-0.406 -77.19 10.025 -95.966 24.629 -99.095L29.844 -100.138ZM25.672 -80.319C21.5 -78.233 20.456 -75.104 20.456 -71.974C24.629 -69.888 29.844 -69.888 34.017 -70.931C32.974 -79.276 30.887 -81.362 25.672 -80.319Z" fill="#13283b" fill-rule="evenodd"/></g><rect x="32" y="404" width="1516" height="220" rx="12" fill="#fffdf8" stroke="#d6dfdf"/><text x="52" y="438" font-family="DejaVu Sans,sans-serif" font-size="25" fill="#17374d">Erbil private · observed subset</text><text x="52" y="467" font-family="DejaVu Sans,sans-serif" font-size="14" fill="#487663">OBSERVED SUBSET</text><path d="M50 595H1530M50 495H1530" fill="none" stroke="#dce7e5" stroke-dasharray="5 5"/><g transform="translate(62 595) scale(1)"><path d="M21.269 -73.173C23.394 -75.298 25.519 -75.298 28.707 -72.11L42.522 -58.295C45.71 -56.17 45.71 -52.982 42.522 -49.794L28.707 -35.979C25.519 -32.791 22.331 -32.791 19.143 -35.979L6.391 -48.731C3.203 -51.919 3.203 -55.107 6.391 -58.295L21.269 -73.173Z" fill="#13283b" fill-rule="evenodd"/></g><text x="84" y="616" font-family="DejaVu Sans,sans-serif" font-size="13" fill="#526475">0</text><g fill="none" stroke="#a8aaa4" stroke-width="1.5"><rect x="164" y="495" width="58" height="100" stroke-dasharray="4 4"/><path d="M175 523L211 567M211 523L175 567"/></g><text x="182" y="616" font-family="DejaVu Sans,sans-serif" font-size="13" fill="#526475">1</text><g fill="none" stroke="#a8aaa4" stroke-width="1.5"><rect x="262" y="495" width="58" height="100" stroke-dasharray="4 4"/><path d="M273 523L309 567M309 523L273 567"/></g><text x="280" y="616" font-family="DejaVu Sans,sans-serif" font-size="13" fill="#526475">2</text><g transform="translate(356 595) scale(1)"><path d="M8.024 -97.671C10.149 -101.922 13.338 -99.797 14.4 -91.295C17.588 -79.606 22.902 -75.355 29.278 -78.543C34.591 -80.669 37.779 -89.17 40.967 -93.421C45.218 -98.734 45.218 -92.358 45.218 -85.982C45.218 -79.606 48.406 -76.418 51.594 -77.481C55.845 -79.606 56.907 -88.107 61.158 -95.546C64.346 -101.922 66.471 -99.797 65.409 -91.295C66.471 -79.606 62.221 -64.728 52.657 -60.478C48.406 -58.352 43.092 -61.54 38.842 -60.478C32.466 -60.478 32.466 -51.976 33.528 -45.6C36.716 -32.848 37.779 -19.033 33.528 -7.344L30.34 -0.968C27.152 3.283 25.027 -7.344 23.964 -15.845C21.839 -36.036 17.588 -49.851 8.024 -66.854C1.648 -77.481 3.773 -90.233 8.024 -97.671Z" fill="#13283b" fill-rule="evenodd"/></g><text x="378" y="616" font-family="DejaVu Sans,sans-serif" font-size="13" fill="#526475">3</text><g transform="translate(454 595) scale(1)"><path d="M46.05 -101.047C40.736 -103.172 29.047 -93.608 20.545 -85.106C13.107 -75.542 7.793 -63.853 9.919 -57.477C13.107 -50.038 24.796 -53.226 26.921 -46.85C29.047 -41.537 16.295 -36.223 9.919 -29.847C4.605 -23.471 1.417 -13.907 6.731 -7.531C15.232 5.221 39.674 -0.092 52.426 -9.656C58.802 -14.97 63.053 -21.346 64.115 -24.534C65.178 -28.784 60.927 -25.596 56.676 -25.596C46.05 -22.408 22.671 -19.22 20.545 -24.534C15.232 -28.784 33.298 -34.098 40.736 -44.725C48.175 -53.226 51.363 -61.727 46.05 -65.978C41.799 -70.229 30.11 -69.166 30.11 -73.417C30.11 -77.668 39.674 -81.918 42.862 -88.294C47.112 -94.67 49.238 -101.047 46.05 -101.047Z" fill="#13283b" fill-rule="evenodd"/></g><text x="476" y="616" font-family="DejaVu Sans,sans-serif" font-size="13" fill="#526475">4</text><g transform="translate(552 595) scale(1)"><path d="M30.176 -100.803C19.55 -101.865 16.362 -83.8 12.111 -69.985C4.672 -47.669 -0.641 -20.039 9.986 -7.287C16.362 1.214 41.866 2.277 53.555 -4.099C69.495 -12.6 67.37 -40.23 63.119 -57.233C59.931 -76.361 42.929 -99.74 33.364 -100.803H30.176ZM31.239 -68.922C41.866 -73.173 51.43 -54.045 54.618 -39.167C57.806 -27.478 46.117 -25.352 35.49 -25.352C23.8 -25.352 16.362 -28.54 17.424 -39.167C18.487 -51.919 22.738 -64.672 31.239 -68.922Z" fill="#13283b" fill-rule="evenodd"/></g><text x="574" y="616" font-family="DejaVu Sans,sans-serif" font-size="13" fill="#526475">5</text><g transform="translate(650 595) scale(1)"><path d="M14.825 -98.635C22.263 -96.51 39.266 -95.447 48.83 -98.635C55.206 -100.761 55.206 -96.51 54.144 -89.071C53.081 -59.316 54.144 -32.749 63.708 -14.684C67.959 -10.433 59.457 -4.057 54.144 -0.869C49.893 2.319 47.768 -4.057 46.705 -7.245C40.329 -26.373 41.392 -54.003 41.392 -77.382C29.702 -79.507 16.95 -76.319 7.386 -79.507C-0.053 -81.632 6.323 -90.134 11.637 -95.447C12.699 -97.573 13.762 -98.635 14.825 -98.635Z" fill="#13283b" fill-rule="evenodd"/></g><text x="672" y="616" font-family="DejaVu Sans,sans-serif" font-size="13" fill="#526475">6</text><g fill="none" stroke="#a8aaa4" stroke-width="1.5"><rect x="752" y="495" width="58" height="100" stroke-dasharray="4 4"/><path d="M763 523L799 567M799 523L763 567"/></g><text x="770" y="616" font-family="DejaVu Sans,sans-serif" font-size="13" fill="#526475">7</text><g transform="translate(846 595) scale(1)"><path d="M31.673 -98.207C32.735 -101.395 36.986 -100.332 36.986 -95.019C38.049 -69.514 47.613 -42.948 61.428 -20.631C66.741 -16.381 60.365 -2.566 58.24 -0.44C53.989 3.81 42.299 -23.819 38.049 -35.509C34.861 -44.01 29.547 -41.885 27.422 -35.509C23.171 -21.694 16.795 -7.879 14.67 -3.628C11.482 3.81 8.294 -4.691 5.106 -13.193C2.98 -18.506 4.043 -20.631 7.231 -27.007C19.983 -48.261 27.422 -73.765 30.61 -92.893L31.673 -98.207Z" fill="#13283b" fill-rule="evenodd"/></g><text x="868" y="616" font-family="DejaVu Sans,sans-serif" font-size="13" fill="#526475">8</text><g fill="none" stroke="#a8aaa4" stroke-width="1.5"><rect x="948" y="495" width="58" height="100" stroke-dasharray="4 4"/><path d="M959 523L995 567M995 523L959 567"/></g><text x="966" y="616" font-family="DejaVu Sans,sans-serif" font-size="13" fill="#526475">9</text><text x="1080" y="484" font-family="DejaVu Sans,sans-serif" font-size="14" fill="#526475">Reordered / live run</text><g transform="translate(1080 595) scale(0.69)"><path d="M14.825 -98.635C22.263 -96.51 39.266 -95.447 48.83 -98.635C55.206 -100.761 55.206 -96.51 54.144 -89.071C53.081 -59.316 54.144 -32.749 63.708 -14.684C67.959 -10.433 59.457 -4.057 54.144 -0.869C49.893 2.319 47.768 -4.057 46.705 -7.245C40.329 -26.373 41.392 -54.003 41.392 -77.382C29.702 -79.507 16.95 -76.319 7.386 -79.507C-0.053 -81.632 6.323 -90.134 11.637 -95.447C12.699 -97.573 13.762 -98.635 14.825 -98.635Z" fill="#13283b" fill-rule="evenodd"/></g><g transform="translate(1136.512917 595) scale(0.69)"><path d="M8.024 -97.671C10.149 -101.922 13.338 -99.797 14.4 -91.295C17.588 -79.606 22.902 -75.355 29.278 -78.543C34.591 -80.669 37.779 -89.17 40.967 -93.421C45.218 -98.734 45.218 -92.358 45.218 -85.982C45.218 -79.606 48.406 -76.418 51.594 -77.481C55.845 -79.606 56.907 -88.107 61.158 -95.546C64.346 -101.922 66.471 -99.797 65.409 -91.295C66.471 -79.606 62.221 -64.728 52.657 -60.478C48.406 -58.352 43.092 -61.54 38.842 -60.478C32.466 -60.478 32.466 -51.976 33.528 -45.6C36.716 -32.848 37.779 -19.033 33.528 -7.344L30.34 -0.968C27.152 3.283 25.027 -7.344 23.964 -15.845C21.839 -36.036 17.588 -49.851 8.024 -66.854C1.648 -77.481 3.773 -90.233 8.024 -97.671Z" fill="#13283b" fill-rule="evenodd"/></g><g transform="translate(1193.595705 595) scale(0.69)"><path d="M30.176 -100.803C19.55 -101.865 16.362 -83.8 12.111 -69.985C4.672 -47.669 -0.641 -20.039 9.986 -7.287C16.362 1.214 41.866 2.277 53.555 -4.099C69.495 -12.6 67.37 -40.23 63.119 -57.233C59.931 -76.361 42.929 -99.74 33.364 -100.803H30.176ZM31.239 -68.922C41.866 -73.173 51.43 -54.045 54.618 -39.167C57.806 -27.478 46.117 -25.352 35.49 -25.352C23.8 -25.352 16.362 -28.54 17.424 -39.167C18.487 -51.919 22.738 -64.672 31.239 -68.922Z" fill="#13283b" fill-rule="evenodd"/></g><rect x="32" y="644" width="1516" height="220" rx="12" fill="#fffdf8" stroke="#d6dfdf"/><text x="52" y="678" font-family="DejaVu Sans,sans-serif" font-size="25" fill="#17374d">Anbar taxi · observed subset</text><text x="52" y="707" font-family="DejaVu Sans,sans-serif" font-size="14" fill="#487663">OBSERVED SUBSET</text><path d="M50 835H1530M50 735H1530" fill="none" stroke="#dce7e5" stroke-dasharray="5 5"/><g fill="none" stroke="#a8aaa4" stroke-width="1.5"><rect x="66" y="735" width="58" height="100" stroke-dasharray="4 4"/><path d="M77 763L113 807M113 763L77 807"/></g><text x="84" y="856" font-family="DejaVu Sans,sans-serif" font-size="13" fill="#526475">0</text><g transform="translate(160 835) scale(1)"><path d="M12.52 -100.079C20.385 -85.004 24.318 -69.274 26.284 -52.561C30.216 -32.571 30.216 -13.565 23.007 -1.44C22.024 -0.129 21.041 0.854 20.713 -1.112L16.453 -28.967L10.226 -59.771L4 -78.778L12.52 -100.079Z" fill="#13283b" fill-rule="evenodd"/></g><text x="182" y="856" font-family="DejaVu Sans,sans-serif" font-size="13" fill="#526475">1</text><g transform="translate(258 835) scale(1)"><path d="M16.099 -99.992C22.653 -100.319 33.795 -95.076 38.711 -90.488L32.812 -73.448C32.157 -71.154 31.501 -71.154 30.19 -71.809L19.048 -75.086C16.754 -76.069 15.444 -76.069 15.771 -73.775C17.41 -65.583 24.292 -53.785 27.569 -42.643C30.846 -30.846 31.501 -18.721 29.863 -10.201C28.879 -5.285 27.569 -1.68 24.947 -0.042C23.636 0.286 22.981 -1.353 22.653 -3.647L16.427 -32.157C12.494 -46.903 6.268 -56.079 4.629 -66.238C2.663 -75.414 5.612 -92.127 9.217 -97.37C10.856 -99.336 13.15 -99.992 16.099 -99.992Z" fill="#13283b" fill-rule="evenodd"/></g><text x="280" y="856" font-family="DejaVu Sans,sans-serif" font-size="13" fill="#526475">2</text><g fill="none" stroke="#a8aaa4" stroke-width="1.5"><rect x="360" y="735" width="58" height="100" stroke-dasharray="4 4"/><path d="M371 763L407 807M407 763L371 807"/></g><text x="378" y="856" font-family="DejaVu Sans,sans-serif" font-size="13" fill="#526475">3</text><g fill="none" stroke="#a8aaa4" stroke-width="1.5"><rect x="458" y="735" width="58" height="100" stroke-dasharray="4 4"/><path d="M469 763L505 807M505 763L469 807"/></g><text x="476" y="856" font-family="DejaVu Sans,sans-serif" font-size="13" fill="#526475">4</text><g transform="translate(552 835) scale(1)"><path d="M21.645 -99.922C18.368 -100.578 16.074 -96.645 14.108 -91.074C8.537 -75.017 4.604 -55.355 4.277 -38.314C3.293 -24.55 4.932 -10.459 9.192 -3.905C11.814 1.666 22.3 0.027 26.888 -1.283C34.098 -3.25 37.702 -12.425 38.358 -23.895C39.996 -43.23 37.702 -67.48 34.425 -85.503L31.476 -95.007C28.527 -98.612 24.922 -100.25 21.645 -99.922ZM22.628 -75.345C20.006 -76 16.729 -65.841 14.108 -55.027C12.469 -47.162 11.158 -38.314 12.469 -28.155L12.797 -24.878C17.385 -19.635 25.25 -22.584 30.165 -27.5C31.476 -37.986 28.527 -60.598 26.56 -71.084C25.25 -74.689 24.266 -75.672 22.628 -75.345Z" fill="#13283b" fill-rule="evenodd"/></g><text x="574" y="856" font-family="DejaVu Sans,sans-serif" font-size="13" fill="#526475">5</text><g fill="none" stroke="#a8aaa4" stroke-width="1.5"><rect x="654" y="735" width="58" height="100" stroke-dasharray="4 4"/><path d="M665 763L701 807M701 763L665 807"/></g><text x="672" y="856" font-family="DejaVu Sans,sans-serif" font-size="13" fill="#526475">6</text><g fill="none" stroke="#a8aaa4" stroke-width="1.5"><rect x="752" y="735" width="58" height="100" stroke-dasharray="4 4"/><path d="M763 763L799 807M799 763L763 807"/></g><text x="770" y="856" font-family="DejaVu Sans,sans-serif" font-size="13" fill="#526475">7</text><g fill="none" stroke="#a8aaa4" stroke-width="1.5"><rect x="850" y="735" width="58" height="100" stroke-dasharray="4 4"/><path d="M861 763L897 807M897 763L861 807"/></g><text x="868" y="856" font-family="DejaVu Sans,sans-serif" font-size="13" fill="#526475">8</text><g transform="translate(944 835) scale(1)"><path d="M24.557 -97.328C28.817 -98.967 32.422 -96.345 34.388 -91.43C36.682 -84.548 36.027 -70.784 36.027 -57.676C36.027 -44.24 35.699 -35.064 37.338 -23.922L37.993 -18.024C36.355 -13.436 30.456 -1.966 27.507 0C25.213 -9.831 24.557 -20.645 24.557 -30.477L24.885 -48.828C19.314 -44.24 14.071 -40.963 9.811 -42.929C3.912 -45.879 3.256 -52.105 4.567 -61.608C7.189 -75.372 14.071 -92.74 24.557 -97.328ZM19.642 -80.288C22.591 -81.926 25.213 -77.666 24.23 -71.767C23.902 -65.869 22.919 -61.608 20.625 -57.348C17.675 -55.382 14.398 -55.054 13.088 -58.331C11.449 -62.592 15.054 -73.078 17.348 -77.666C18.003 -79.304 18.659 -80.288 19.642 -80.288Z" fill="#13283b" fill-rule="evenodd"/></g><text x="966" y="856" font-family="DejaVu Sans,sans-serif" font-size="13" fill="#526475">9</text><text x="1080" y="724" font-family="DejaVu Sans,sans-serif" font-size="14" fill="#526475">Reordered / live run</text><g transform="translate(1080 835) scale(0.69)"><path d="M21.645 -99.922C18.368 -100.578 16.074 -96.645 14.108 -91.074C8.537 -75.017 4.604 -55.355 4.277 -38.314C3.293 -24.55 4.932 -10.459 9.192 -3.905C11.814 1.666 22.3 0.027 26.888 -1.283C34.098 -3.25 37.702 -12.425 38.358 -23.895C39.996 -43.23 37.702 -67.48 34.425 -85.503L31.476 -95.007C28.527 -98.612 24.922 -100.25 21.645 -99.922ZM22.628 -75.345C20.006 -76 16.729 -65.841 14.108 -55.027C12.469 -47.162 11.158 -38.314 12.469 -28.155L12.797 -24.878C17.385 -19.635 25.25 -22.584 30.165 -27.5C31.476 -37.986 28.527 -60.598 26.56 -71.084C25.25 -74.689 24.266 -75.672 22.628 -75.345Z" fill="#13283b" fill-rule="evenodd"/></g><g transform="translate(1118.601069 835) scale(0.69)"><path d="M24.557 -97.328C28.817 -98.967 32.422 -96.345 34.388 -91.43C36.682 -84.548 36.027 -70.784 36.027 -57.676C36.027 -44.24 35.699 -35.064 37.338 -23.922L37.993 -18.024C36.355 -13.436 30.456 -1.966 27.507 0C25.213 -9.831 24.557 -20.645 24.557 -30.477L24.885 -48.828C19.314 -44.24 14.071 -40.963 9.811 -42.929C3.912 -45.879 3.256 -52.105 4.567 -61.608C7.189 -75.372 14.071 -92.74 24.557 -97.328ZM19.642 -80.288C22.591 -81.926 25.213 -77.666 24.23 -71.767C23.902 -65.869 22.919 -61.608 20.625 -57.348C17.675 -55.382 14.398 -55.054 13.088 -58.331C11.449 -62.592 15.054 -73.078 17.348 -77.666C18.003 -79.304 18.659 -80.288 19.642 -80.288Z" fill="#13283b" fill-rule="evenodd"/></g><g transform="translate(1156.576239 835) scale(0.69)"><path d="M12.52 -100.079C20.385 -85.004 24.318 -69.274 26.284 -52.561C30.216 -32.571 30.216 -13.565 23.007 -1.44C22.024 -0.129 21.041 0.854 20.713 -1.112L16.453 -28.967L10.226 -59.771L4 -78.778L12.52 -100.079Z" fill="#13283b" fill-rule="evenodd"/></g><rect x="32" y="884" width="1516" height="220" rx="12" fill="#fffdf8" stroke="#d6dfdf"/><text x="52" y="918" font-family="DejaVu Sans,sans-serif" font-size="25" fill="#17374d">Erbil commercial · clean observed subset</text><text x="52" y="947" font-family="DejaVu Sans,sans-serif" font-size="14" fill="#487663">OBSERVED SUBSET</text><path d="M50 1075H1530M50 975H1530" fill="none" stroke="#dce7e5" stroke-dasharray="5 5"/><g transform="translate(62 1075) scale(1)"><path d="M19.362 -63.256Q21.137 -64.321 22.557 -62.901L35.338 -50.476Q37.113 -48.701 34.983 -46.571L21.137 -33.79Q19.362 -32.015 17.587 -33.79L4.807 -46.571Q3.032 -48.346 5.162 -50.476L19.362 -63.256Z" fill="#13283b" fill-rule="evenodd"/></g><text x="84" y="1096" font-family="DejaVu Sans,sans-serif" font-size="13" fill="#526475">0</text><g transform="translate(160 1075) scale(1)"><path d="M17.348 -100.397C22.319 -94.362 26.934 -79.807 29.419 -67.736C35.454 -44.305 30.484 -23.005 17.348 -3.834Q13.443 2.556 13.798 -1.704C16.638 -22.295 15.573 -41.465 12.023 -56.376C9.538 -67.736 6.343 -74.836 4.568 -79.452Q3.148 -81.582 5.278 -84.422L17.348 -100.397Z" fill="#13283b" fill-rule="evenodd"/></g><text x="182" y="1096" font-family="DejaVu Sans,sans-serif" font-size="13" fill="#526475">1</text><g fill="none" stroke="#a8aaa4" stroke-width="1.5"><rect x="262" y="975" width="58" height="100" stroke-dasharray="4 4"/><path d="M273 1003L309 1047M309 1003L273 1047"/></g><text x="280" y="1096" font-family="DejaVu Sans,sans-serif" font-size="13" fill="#526475">2</text><g transform="translate(356 1075) scale(1)"><path d="M14.397 -99.603C19.722 -92.148 23.982 -84.337 29.662 -83.982C36.052 -83.272 39.958 -90.728 42.798 -97.118Q43.863 -99.958 44.573 -96.408C47.058 -88.597 49.543 -81.852 54.513 -83.982C59.128 -85.757 63.388 -90.728 66.938 -94.633Q68.713 -96.763 68.003 -92.858L64.098 -72.267C63.033 -64.812 58.773 -59.842 52.738 -60.907Q48.123 -61.617 45.283 -63.747Q41.378 -59.842 33.567 -60.552C34.632 -48.126 35.697 -37.831 33.212 -25.405C31.437 -14.4 26.112 -3.75 21.852 -0.2Q19.722 0.865 19.722 -3.75C19.367 -17.95 19.012 -29.666 15.817 -42.801C12.267 -58.777 6.942 -68.717 4.456 -77.592Q3.391 -79.367 4.811 -82.207L14.397 -99.603Z" fill="#13283b" fill-rule="evenodd"/></g><text x="378" y="1096" font-family="DejaVu Sans,sans-serif" font-size="13" fill="#526475">3</text><g fill="none" stroke="#a8aaa4" stroke-width="1.5"><rect x="458" y="975" width="58" height="100" stroke-dasharray="4 4"/><path d="M469 1003L505 1047M505 1003L469 1047"/></g><text x="476" y="1096" font-family="DejaVu Sans,sans-serif" font-size="13" fill="#526475">4</text><g fill="none" stroke="#a8aaa4" stroke-width="1.5"><rect x="556" y="975" width="58" height="100" stroke-dasharray="4 4"/><path d="M567 1003L603 1047M603 1003L567 1047"/></g><text x="574" y="1096" font-family="DejaVu Sans,sans-serif" font-size="13" fill="#526475">5</text><g fill="none" stroke="#a8aaa4" stroke-width="1.5"><rect x="654" y="975" width="58" height="100" stroke-dasharray="4 4"/><path d="M665 1003L701 1047M701 1003L665 1047"/></g><text x="672" y="1096" font-family="DejaVu Sans,sans-serif" font-size="13" fill="#526475">6</text><g fill="none" stroke="#a8aaa4" stroke-width="1.5"><rect x="752" y="975" width="58" height="100" stroke-dasharray="4 4"/><path d="M763 1003L799 1047M799 1003L763 1047"/></g><text x="770" y="1096" font-family="DejaVu Sans,sans-serif" font-size="13" fill="#526475">7</text><g fill="none" stroke="#a8aaa4" stroke-width="1.5"><rect x="850" y="975" width="58" height="100" stroke-dasharray="4 4"/><path d="M861 1003L897 1047M897 1003L861 1047"/></g><text x="868" y="1096" font-family="DejaVu Sans,sans-serif" font-size="13" fill="#526475">8</text><g fill="none" stroke="#a8aaa4" stroke-width="1.5"><rect x="948" y="975" width="58" height="100" stroke-dasharray="4 4"/><path d="M959 1003L995 1047M995 1003L959 1047"/></g><text x="966" y="1096" font-family="DejaVu Sans,sans-serif" font-size="13" fill="#526475">9</text><text x="1080" y="964" font-family="DejaVu Sans,sans-serif" font-size="14" fill="#526475">Reordered / live run</text><g transform="translate(1080 1075) scale(0.69)"><path d="M17.348 -100.397C22.319 -94.362 26.934 -79.807 29.419 -67.736C35.454 -44.305 30.484 -23.005 17.348 -3.834Q13.443 2.556 13.798 -1.704C16.638 -22.295 15.573 -41.465 12.023 -56.376C9.538 -67.736 6.343 -74.836 4.568 -79.452Q3.148 -81.582 5.278 -84.422L17.348 -100.397Z" fill="#13283b" fill-rule="evenodd"/></g><g transform="translate(1113.81447 1075) scale(0.69)"><path d="M14.397 -99.603C19.722 -92.148 23.982 -84.337 29.662 -83.982C36.052 -83.272 39.958 -90.728 42.798 -97.118Q43.863 -99.958 44.573 -96.408C47.058 -88.597 49.543 -81.852 54.513 -83.982C59.128 -85.757 63.388 -90.728 66.938 -94.633Q68.713 -96.763 68.003 -92.858L64.098 -72.267C63.033 -64.812 58.773 -59.842 52.738 -60.907Q48.123 -61.617 45.283 -63.747Q41.378 -59.842 33.567 -60.552C34.632 -48.126 35.697 -37.831 33.212 -25.405C31.437 -14.4 26.112 -3.75 21.852 -0.2Q19.722 0.865 19.722 -3.75C19.367 -17.95 19.012 -29.666 15.817 -42.801C12.267 -58.777 6.942 -68.717 4.456 -77.592Q3.391 -79.367 4.811 -82.207L14.397 -99.603Z" fill="#13283b" fill-rule="evenodd"/></g><g transform="translate(1172.636541 1075) scale(0.69)"><path d="M19.362 -63.256Q21.137 -64.321 22.557 -62.901L35.338 -50.476Q37.113 -48.701 34.983 -46.571L21.137 -33.79Q19.362 -32.015 17.587 -33.79L4.807 -46.571Q3.032 -48.346 5.162 -50.476L19.362 -63.256Z" fill="#13283b" fill-rule="evenodd"/></g><rect x="32" y="1124" width="1516" height="220" rx="12" fill="#fffdf8" stroke="#d6dfdf"/><text x="52" y="1158" font-family="DejaVu Sans,sans-serif" font-size="25" fill="#17374d">GL-Nummernschild Eng · FE candidate</text><text x="52" y="1187" font-family="DejaVu Sans,sans-serif" font-size="14" fill="#956920">LICENSED CANDIDATE · not a verified Iraqi die</text><path d="M50 1315H1530M50 1215H1530" fill="none" stroke="#dce7e5" stroke-dasharray="5 5"/><g transform="translate(62 1315) scale(1)"><path d="M4 -16.5V-83.5Q4 -90.5 8.917 -95.25Q13.833 -100 20.5 -100H38.833Q43.667 -100 47.25 -97.833Q50.833 -95.667 52.667 -93Q54.5 -90.333 54.5 -89.167Q54.5 -88.333 53.667 -87.5L45.167 -79.833Q44 -78.833 43.167 -78.833Q41.167 -78.833 41.167 -81V-84.667Q41.167 -85.833 40.333 -86.583Q39.5 -87.333 38.5 -87.333H22.833Q20 -87.333 20 -84.667V-18.833Q20 -17.667 20.833 -16.833Q21.667 -16 22.667 -16H36.5Q39.333 -16 39.333 -18.833V-66.5Q39.333 -67.333 40.5 -68.5L54.333 -80.833Q54.833 -81.333 55.167 -81.333Q55.333 -81.333 55.333 -80.833V-16.5Q55.333 -9.5 50.417 -4.75Q45.5 0 38.833 0H20.5Q13.5 0 8.75 -4.917Q4 -9.833 4 -16.5Z" fill="#13283b" fill-rule="nonzero"/></g><text x="84" y="1336" font-family="DejaVu Sans,sans-serif" font-size="13" fill="#526475">0</text><g transform="translate(160 1315) scale(1)"><path d="M4 -2.833V-13.167Q4 -16 6.833 -16H27Q28 -16 28.833 -16.833Q29.667 -17.667 29.667 -18.833V-78.833Q29.667 -79.833 28.667 -79.833Q28 -79.833 27.5 -79.583Q27 -79.333 26.667 -78.833L19.333 -70.667Q17.5 -68.833 16.833 -68.417Q16.167 -68 14.833 -68H6.833Q5.667 -68 4.833 -68.833Q4 -69.667 4 -70.667V-78.833Q4 -80 4.917 -80.667Q5.833 -81.333 7.667 -82Q10.333 -83.167 11 -83.833L26.5 -99.333Q27.167 -100 28.5 -100H42.833Q45.667 -100 45.667 -97.333V-18.833Q45.667 -16 48.5 -16H52.5Q55.333 -16 55.333 -13.167V-2.833Q55.333 0 52.5 0H6.833Q4 0 4 -2.833Z" fill="#13283b" fill-rule="nonzero"/></g><text x="182" y="1336" font-family="DejaVu Sans,sans-serif" font-size="13" fill="#526475">1</text><g transform="translate(258 1315) scale(1)"><path d="M4 -2.833V-16Q4 -17.333 4.833 -18.583Q5.667 -19.833 8.167 -22.667Q14.167 -29.667 17 -33.333L24.667 -43.333Q33.167 -54.333 36.25 -61.583Q39.333 -68.833 39.333 -76.5Q39.333 -80.333 36.25 -82.583Q33.167 -84.833 28.333 -84.833Q24 -84.833 21.5 -82.333Q19 -79.833 19 -75.333Q19 -71.333 16 -71.333H6.833Q4 -71.333 4 -74.167V-77Q4 -88.333 10.417 -94.167Q16.833 -100 28 -100Q39.667 -100 47.5 -94.5Q55.333 -89 55.333 -78Q55.333 -68.833 52.25 -60.75Q49.167 -52.667 44.5 -45.75Q39.833 -38.833 31.667 -28.5L26.167 -21.333Q23.833 -18.5 23.833 -17.167Q23.833 -16 24.833 -16H52.5Q55.333 -16 55.333 -13.167V-2.833Q55.333 0 52.5 0H6.833Q4 0 4 -2.833Z" fill="#13283b" fill-rule="nonzero"/></g><text x="280" y="1336" font-family="DejaVu Sans,sans-serif" font-size="13" fill="#526475">2</text><g transform="translate(356 1315) scale(1)"><path d="M4 -27.167Q4 -30 6.833 -30H15.667Q18.333 -30 18.333 -27V-25.833Q18.333 -22 18.917 -19.75Q19.5 -17.5 21.75 -16.083Q24 -14.667 28.667 -14.667Q33.833 -14.667 36.417 -16.333Q39 -18 39.833 -21.333Q40.667 -24.667 40.667 -30.833Q40.667 -36.833 37.083 -42.333Q33.5 -47.833 26.333 -47.833H17.667Q16.5 -47.833 15.75 -48.75Q15 -49.667 15 -50.667V-55.833Q15 -57.667 16.667 -59.667L36.833 -81.333Q38.833 -83.333 38.833 -85Q38.833 -87.333 36.667 -87.333H6.833Q4 -87.333 4 -90.167V-97.333Q4 -98.5 4.833 -99.25Q5.667 -100 6.667 -100H52.5Q55.333 -100 55.333 -97.333V-84.333Q55.333 -82.167 54.333 -81.167L34.667 -60Q34.333 -59.667 34.333 -59Q34.333 -57.833 37.5 -57.5Q42 -56.667 45.667 -54.667Q49.333 -52.667 52.667 -46.833Q53.667 -45.167 54.5 -40.5Q55.333 -35.833 55.333 -32.333Q55.333 -19.333 52.5 -12.333Q49.667 -5.333 44 -2.667Q38.333 0 28.667 0Q16.333 0 10.167 -5.917Q4 -11.833 4 -27.167Z" fill="#13283b" fill-rule="nonzero"/></g><text x="378" y="1336" font-family="DejaVu Sans,sans-serif" font-size="13" fill="#526475">3</text><g transform="translate(454 1315) scale(1)"><path d="M33.333 -2.833V-15.167Q33.333 -16.333 32.5 -17.167Q31.667 -18 30.667 -18H6.833Q5.667 -18 4.833 -18.917Q4 -19.833 4 -20.833V-33Q4 -35 6 -41.667L24.167 -97.333Q25.833 -100 27.333 -100H36Q38 -100 38.833 -99.583Q39.667 -99.167 39.667 -97.833Q39.667 -97.333 39.75 -96.5Q39.833 -95.667 39.5 -95.167L20.5 -37.333Q20.333 -37 20.167 -36.583Q20 -36.167 20 -35.833Q20 -33.333 22.833 -33.333H30.667Q31.667 -33.333 32.5 -34.167Q33.333 -35 33.333 -36.167V-50.5Q33.333 -51.833 34.167 -52.583Q35 -53.333 36.167 -53.333H45.167Q48 -53.333 48 -50.5V-36.167Q48 -35 48.833 -34.167Q49.667 -33.333 50.833 -33.333H52.5Q53.833 -33.333 54.583 -32.5Q55.333 -31.667 55.333 -30.667V-20.833Q55.333 -18 52.5 -18H50.833Q48 -18 48 -15.167V-2.833Q48 0 45.167 0H36.167Q35 0 34.167 -0.833Q33.333 -1.667 33.333 -2.833Z" fill="#13283b" fill-rule="nonzero"/></g><text x="476" y="1336" font-family="DejaVu Sans,sans-serif" font-size="13" fill="#526475">4</text><g transform="translate(552 1315) scale(1)"><path d="M4 -23.167Q4 -26 6.833 -26H17.167Q18.333 -26 19.167 -25.167Q20 -24.333 20 -23.167Q20 -19 21.333 -17.5Q22.667 -16 27.167 -16Q34.333 -16 36.833 -19.583Q39.333 -23.167 39.333 -33.167Q39.333 -42.167 38.5 -46.25Q37.667 -50.333 36 -51.333Q34.333 -52.333 31.167 -52.333Q28.667 -52.333 27.333 -51.75Q26 -51.167 24.667 -50Q23.667 -49 22.75 -48.5Q21.833 -48 20 -48H6.833Q4 -48 4 -50.833V-97.333Q4 -100 6.833 -100H52.5Q55.333 -100 55.333 -97.333V-90.167Q55.333 -87.333 52.5 -87.333H22.833Q20 -87.333 20 -84.667V-62Q20 -61.167 21.5 -61.167Q22.833 -61.167 25.333 -63Q27.833 -64.667 30 -65.667Q32.167 -66.667 35.667 -66.667Q42.5 -66.667 46.667 -64.417Q50.833 -62.167 53.083 -55.083Q55.333 -48 55.333 -33.833Q55.333 -20.833 52.333 -13.5Q49.333 -6.167 43.167 -3.083Q37 0 27.167 0Q17 0 12.25 -1.667Q7.5 -3.333 5.75 -8.083Q4 -12.833 4 -23.167Z" fill="#13283b" fill-rule="nonzero"/></g><text x="574" y="1336" font-family="DejaVu Sans,sans-serif" font-size="13" fill="#526475">5</text><g transform="translate(650 1315) scale(1)"><path d="M4 -33.167Q4 -46 10.25 -61.417Q16.5 -76.833 24.25 -88.417Q32 -100 34.5 -100H43.833Q48.333 -100 48.333 -97.667Q48.333 -97.333 47.833 -96.417Q47.333 -95.5 46.833 -94.833L33.5 -73.333Q28.5 -65.167 28.5 -63.833Q28.5 -63.167 29.667 -63.167Q31.333 -63.667 33.333 -64.167Q35.333 -64.667 38.333 -64.667Q47.5 -64.667 51.417 -57Q55.333 -49.333 55.333 -34.667Q55.333 0 30.5 0Q22.5 0 16.5 -4.75Q10.5 -9.5 7.25 -17.167Q4 -24.833 4 -33.167ZM40.333 -35.333Q40.333 -42.333 39.833 -45.417Q39.333 -48.5 38 -51Q37.333 -52.333 34.833 -52.833Q32.333 -53.333 30.333 -53.333Q28.833 -53.333 26.5 -52.417Q24.167 -51.5 23.333 -49.833Q21.667 -46.5 20.5 -42.083Q19.333 -37.667 19.333 -33.667Q19.333 -25.5 22.75 -20.833Q26.167 -16.167 31.167 -16.167Q36.5 -16.167 38.417 -22.667Q40.333 -29.167 40.333 -35.333Z" fill="#13283b" fill-rule="nonzero"/></g><text x="672" y="1336" font-family="DejaVu Sans,sans-serif" font-size="13" fill="#526475">6</text><g transform="translate(748 1315) scale(1)"><path d="M4 -2.833V-13.167Q4 -17.333 4.333 -18.917Q4.667 -20.5 5.333 -22L35.333 -77.5Q36 -78.833 36 -81.333Q36 -84 33.167 -84H22.833Q20 -84 20 -81.333V-74.833Q20 -72 17.167 -72H6.833Q4 -72 4 -74.833V-97.333Q4 -98.333 4.833 -99.167Q5.667 -100 6.833 -100H52.333Q53.5 -100 54.417 -99.167Q55.333 -98.333 55.333 -97.333V-83.833Q55.333 -80.333 53.417 -76.333Q51.5 -72.333 47.833 -66L23.833 -22Q22.833 -19.667 22.083 -17.333Q21.333 -15 21.333 -13.167V-2.833Q21.333 -1.667 20.5 -0.833Q19.667 0 18.667 0H6.833Q4 0 4 -2.833Z" fill="#13283b" fill-rule="nonzero"/></g><text x="770" y="1336" font-family="DejaVu Sans,sans-serif" font-size="13" fill="#526475">7</text><g transform="translate(846 1315) scale(1)"><path d="M4 -32.5Q4 -39.5 6.583 -44.167Q9.167 -48.833 13.167 -53Q15.333 -55.167 15.333 -56Q15.333 -56.833 13.167 -59.333Q10 -63.167 8.167 -66.667Q6.333 -70.167 6.333 -75Q6.333 -85.5 12.75 -92.75Q19.167 -100 29.667 -100Q40.167 -100 46.583 -93.083Q53 -86.167 53 -75.667Q53 -70.833 51.167 -67.333Q49.333 -63.833 46.167 -60Q44 -57.5 44 -56.667Q44 -56 46.167 -53.5Q50.167 -49.167 52.75 -44.333Q55.333 -39.5 55.333 -32.5Q55.333 -16.833 49.333 -8.417Q43.333 0 29.667 0Q4 0 4 -32.5ZM40.667 -32.5Q40.667 -39 37.583 -44.417Q34.5 -49.833 29.667 -49.833Q24.833 -49.833 21.75 -44.5Q18.667 -39.167 18.667 -32.5Q18.667 -25.833 21.583 -20.917Q24.5 -16 29.667 -16Q35 -16 37.833 -20.417Q40.667 -24.833 40.667 -32.5ZM38.333 -75.667Q38.333 -82.167 35.667 -84.75Q33 -87.333 29.667 -87.333Q26.333 -87.333 23.667 -84.583Q21 -81.833 21 -75Q21 -68.167 23.667 -65.333Q26.333 -62.5 29.667 -62.5Q32.833 -62.5 35.583 -65.583Q38.333 -68.667 38.333 -75.667Z" fill="#13283b" fill-rule="nonzero"/></g><text x="868" y="1336" font-family="DejaVu Sans,sans-serif" font-size="13" fill="#526475">8</text><g transform="translate(944 1315) scale(1)"><path d="M8.333 -2.5Q8.333 -4.167 9.667 -6L33.5 -42.833Q36.5 -47.667 37.75 -54.583Q39 -61.5 39 -66.667Q39 -77 36.583 -80.917Q34.167 -84.833 29.667 -84.833Q24.833 -84.833 22.25 -79.667Q19.667 -74.5 19.667 -66.667Q19.667 -60 20.333 -57.167Q21 -54.333 23.25 -53.333Q25.5 -52.333 30.833 -52.333Q31.833 -52.333 31.833 -51.333Q31.833 -50.5 30.583 -47.083Q29.333 -43.667 27.25 -40.833Q25.167 -38 22.333 -38Q11.667 -38 7.833 -46Q4 -54 4 -66.667Q4 -100 29.667 -100Q38.333 -100 43.833 -97.25Q49.333 -94.5 52.333 -87.083Q55.333 -79.667 55.333 -66Q55.333 -56.333 54.083 -49.083Q52.833 -41.833 48.833 -35.5L28.667 -2.833Q26.833 0 25 0H12Q8.333 0 8.333 -2.5Z" fill="#13283b" fill-rule="nonzero"/></g><text x="966" y="1336" font-family="DejaVu Sans,sans-serif" font-size="13" fill="#526475">9</text><text x="1080" y="1204" font-family="DejaVu Sans,sans-serif" font-size="14" fill="#526475">Reordered / live run</text><g transform="translate(1080 1315) scale(0.69)"><path d="M4 -2.833V-97.333Q4 -98.5 4.833 -99.25Q5.667 -100 6.833 -100H30.667Q41.167 -100 48.083 -94.75Q55 -89.5 55 -76.667Q55 -70 53.25 -66.167Q51.5 -62.333 48.667 -59.167Q47.667 -57.833 46.917 -56.667Q46.167 -55.5 46.167 -54.5Q46.167 -53.833 47 -52.917Q47.833 -52 48.833 -51Q52.833 -47.167 55.417 -42.667Q58 -38.167 58 -30.5Q58 -17.333 51.25 -8.667Q44.5 0 30.667 0H6.833Q5.667 0 4.833 -0.833Q4 -1.667 4 -2.833ZM42 -31.167Q42 -38.333 38 -43.167Q34 -48 28.667 -48H22.833Q21.333 -48 20.667 -47Q20 -46 20 -45V-18.667Q20 -17.667 20.833 -16.833Q21.667 -16 22.667 -16H31.333Q35.667 -16 38.833 -20.333Q42 -24.667 42 -31.167ZM39 -75.5Q39 -81.167 35.25 -84.25Q31.5 -87.333 26.667 -87.333H22.833Q20 -87.333 20 -84.667V-62.333Q20 -61.167 20.75 -60.25Q21.5 -59.333 22.667 -59.333H27.167Q32.667 -59.333 35.833 -63.75Q39 -68.167 39 -75.5Z" fill="#13283b" fill-rule="nonzero"/></g><g transform="translate(1131.78 1315) scale(0.69)"><path d="M4 -4.333Q4 -5 4.333 -6.333L18.167 -95Q18.667 -97.667 20.417 -98.833Q22.167 -100 24.167 -100H36.833Q42 -100 42.667 -96L57.667 -6.333Q58 -5 58 -4.333Q58 0 53.5 0H46.167Q42.667 0 42.333 -2.333L40.333 -17Q40.333 -18.5 39.5 -19.25Q38.667 -20 37.5 -20H22.667Q21.333 -20 20.667 -19.333Q20 -18.667 19.833 -17L17.833 -2.333Q17.667 -1 16.583 -0.5Q15.5 0 14.5 0H7.667Q6.5 0 5.25 -0.917Q4 -1.833 4 -4.333ZM37.833 -36.5 32.5 -81.167Q32.333 -82.167 31.75 -82.667Q31.167 -83.167 30.333 -83.167Q29.5 -83.167 28.917 -82.667Q28.333 -82.167 28.167 -81.167L22.5 -36.5V-36Q22.5 -34.833 23.333 -34.083Q24.167 -33.333 25.333 -33.333H35Q38.167 -33.333 37.833 -36.5Z" fill="#13283b" fill-rule="nonzero"/></g><g transform="translate(1183.56 1315) scale(0.69)"><path d="M4 -23.833V-84.167Q4 -91.167 8.667 -95.583Q13.333 -100 20 -100H43.667Q49 -100 53.5 -97.083Q58 -94.167 58 -87.333V-79.667Q58 -78.5 57.25 -77.583Q56.5 -76.667 55.167 -76.667H44.833Q43.667 -76.667 42.833 -77.583Q42 -78.5 42 -79.667V-84.667Q42 -86.167 41 -86.75Q40 -87.333 39 -87.333H26.833Q22.667 -87.333 21.333 -85Q20 -82.667 20 -78.333V-24.667Q20 -20 22.583 -17.333Q25.167 -14.667 29.667 -14.667Q34 -14.667 38 -17.083Q42 -19.5 42 -24.667V-38.667Q42 -39.667 41.25 -40.5Q40.5 -41.333 39.167 -41.333H30.333Q29.167 -41.333 28.333 -42.25Q27.5 -43.167 27.5 -44.333V-51.333Q27.5 -52.333 28.333 -53.167Q29.167 -54 30.333 -54H55.167Q58 -54 58 -51.167V-2.833Q58 -1.667 57.167 -0.833Q56.333 0 55.333 0H49Q47.833 0 46.917 -1.417Q46 -2.833 44.667 -5.5Q44 -7 43.25 -8.167Q42.5 -9.333 42 -9.333Q42 -9.333 40.083 -6.333Q38.167 -3.333 34.25 -1Q30.333 1.333 23.167 1.333Q4 1.333 4 -23.833Z" fill="#13283b" fill-rule="nonzero"/></g><g transform="translate(1235.34 1315) scale(0.69)"><path d="M4 -2.667V-97Q4 -98.333 4.75 -99.167Q5.5 -100 6.667 -100H17.333Q18.333 -100 19.167 -99.25Q20 -98.5 20 -97.333V-65.667Q20 -64.5 20.833 -63.583Q21.667 -62.667 22.833 -62.667H39.167Q40.5 -62.667 41.25 -63.5Q42 -64.333 42 -65.333V-97.333Q42 -98.5 42.833 -99.25Q43.667 -100 45 -100H55.167Q56.5 -100 57.25 -99.167Q58 -98.333 58 -97.333V-3Q58 -2 57.333 -1Q56.667 0 55.167 0H44.833Q43.667 0 42.833 -0.833Q42 -1.667 42 -2.833V-43.833Q42 -45 41.25 -45.833Q40.5 -46.667 39.333 -46.667H22.833Q20 -46.667 20 -43.833V-2.667Q20 -1.5 19.167 -0.75Q18.333 0 17 0H6.833Q5.667 0 4.833 -0.833Q4 -1.667 4 -2.667Z" fill="#13283b" fill-rule="nonzero"/></g><g transform="translate(1287.12 1315) scale(0.69)"><path d="M4 -2.667V-97Q4 -98.333 4.75 -99.167Q5.5 -100 6.667 -100H17.333Q18.333 -100 19.167 -99.25Q20 -98.5 20 -97.333V-19Q20 -17.833 20.833 -16.917Q21.667 -16 22.833 -16H39.167Q40.5 -16 41.25 -16.833Q42 -17.667 42 -18.667V-28.667Q42 -29.833 42.833 -30.583Q43.667 -31.333 45 -31.333H55.167Q56.5 -31.333 57.25 -30.5Q58 -29.667 58 -28.667V-8Q58 -4.5 55.583 -2.25Q53.167 0 50 0H6.833Q5.667 0 4.833 -0.833Q4 -1.667 4 -2.667Z" fill="#13283b" fill-rule="nonzero"/></g><g transform="translate(1338.8999999999999 1315) scale(0.69)"><path d="M4 -27.5V-76.333Q4 -89.333 11.5 -94.667Q19 -100 30.833 -100Q58 -100 58 -76.333V-42.833Q58 -36.833 57.417 -33.833Q56.833 -30.833 55.417 -28.667Q54 -26.5 49.667 -21.167Q49.5 -20.833 49.167 -20.5Q48.833 -20.167 48.833 -19.5Q48.833 -19.167 49.25 -18.5Q49.667 -17.833 50.167 -17.167L57 -6.333Q58 -4.833 58 -2.833Q58 0 54.333 0H28Q21.167 0 15.667 -3.75Q10.167 -7.5 7.083 -13.833Q4 -20.167 4 -27.5ZM33.5 -18.167Q33.5 -19.167 33 -20.333Q32.5 -21.5 32.167 -22L23.833 -35.333Q23.333 -36 23.333 -37.667Q23.333 -39.333 25.833 -39.333H34.333Q35.5 -39.333 36.25 -38.667Q37 -38 37.833 -36.667L39.667 -33.667Q40 -33.167 40.333 -32.75Q40.667 -32.333 41.167 -32.333Q42 -32.333 42 -35V-76.333Q42 -81.5 39.167 -84.417Q36.333 -87.333 31.167 -87.333Q26.333 -87.333 23.167 -84.5Q20 -81.667 20 -76.333V-25Q20 -21.667 22.333 -18.833Q24.667 -16 26.833 -16H30Q31 -16 32.25 -16.583Q33.5 -17.167 33.5 -18.167Z" fill="#13283b" fill-rule="nonzero"/></g><rect x="32" y="1364" width="1516" height="220" rx="12" fill="#fffdf8" stroke="#d6dfdf"/><text x="52" y="1398" font-family="DejaVu Sans,sans-serif" font-size="25" fill="#17374d">GL-Nummernschild Mtl · FE candidate</text><text x="52" y="1427" font-family="DejaVu Sans,sans-serif" font-size="14" fill="#956920">LICENSED CANDIDATE · not a verified Iraqi die</text><path d="M50 1555H1530M50 1455H1530" fill="none" stroke="#dce7e5" stroke-dasharray="5 5"/><g transform="translate(62 1555) scale(1)"><path d="M4 -16.5V-83.5Q4 -90.5 8.917 -95.25Q13.833 -100 20.5 -100H46.833Q51.667 -100 55.25 -97.833Q58.833 -95.667 60.667 -93Q62.5 -90.333 62.5 -89.167Q62.5 -88.333 61.667 -87.5L53.167 -79.833Q52 -78.833 51.167 -78.833Q49.167 -78.833 49.167 -81V-84.667Q49.167 -85.833 48.333 -86.583Q47.5 -87.333 46.5 -87.333H22.833Q20 -87.333 20 -84.667V-18.833Q20 -17.667 20.833 -16.833Q21.667 -16 22.667 -16H44.5Q47.333 -16 47.333 -18.833V-66.5Q47.333 -67.333 48.5 -68.5L62.333 -80.833Q62.833 -81.333 63.167 -81.333Q63.333 -81.333 63.333 -80.833V-16.5Q63.333 -9.5 58.417 -4.75Q53.5 0 46.833 0H20.5Q13.5 0 8.75 -4.917Q4 -9.833 4 -16.5Z" fill="#13283b" fill-rule="nonzero"/></g><text x="84" y="1576" font-family="DejaVu Sans,sans-serif" font-size="13" fill="#526475">0</text><g transform="translate(160 1555) scale(1)"><path d="M4 -2.833V-13.167Q4 -16 6.833 -16H28.667Q29.667 -16 30.5 -16.833Q31.333 -17.667 31.333 -18.833V-78.833Q31.333 -79.833 30.333 -79.833Q29.667 -79.833 29.25 -79.583Q28.833 -79.333 28.333 -78.833L19.333 -70.667Q17.5 -68.833 16.833 -68.417Q16.167 -68 14.833 -68H6.833Q5.667 -68 4.833 -68.833Q4 -69.667 4 -70.667V-78.833Q4 -80 4.917 -80.667Q5.833 -81.333 7.833 -82.167Q8.667 -82.5 9.583 -82.917Q10.5 -83.333 11 -83.833L28.167 -99.333Q28.833 -100 30.167 -100H44.5Q47.333 -100 47.333 -97.333V-18.833Q47.333 -16 50.167 -16H60.5Q63.333 -16 63.333 -13.167V-2.833Q63.333 0 60.5 0H6.833Q4 0 4 -2.833Z" fill="#13283b" fill-rule="nonzero"/></g><text x="182" y="1576" font-family="DejaVu Sans,sans-serif" font-size="13" fill="#526475">1</text><g transform="translate(258 1555) scale(1)"><path d="M4 -2.833V-16Q4 -18.167 6 -20.667Q8 -23.167 15.5 -30.667L18.167 -33.333L29.5 -44.833Q47.333 -62.667 47.333 -75.333Q47.333 -84 35.667 -84Q29.333 -84 26.667 -81.75Q24 -79.5 24 -75.333Q24 -71.333 21 -71.333H10.833Q8 -71.333 8 -74.167V-78Q8 -89 15.917 -94.5Q23.833 -100 35.667 -100Q47.5 -100 55.417 -94.5Q63.333 -89 63.333 -78Q63.333 -67.667 59.833 -59.5Q56.333 -51.333 51.25 -45.333Q46.167 -39.333 37.833 -31.333Q31 -24.833 27.833 -21.333Q25.5 -19 25.5 -17.167Q25.5 -16 26.5 -16H60.5Q63.333 -16 63.333 -13.167V-2.833Q63.333 0 60.5 0H6.833Q4 0 4 -2.833Z" fill="#13283b" fill-rule="nonzero"/></g><text x="280" y="1576" font-family="DejaVu Sans,sans-serif" font-size="13" fill="#526475">2</text><g transform="translate(356 1555) scale(1)"><path d="M4 -27.167Q4 -30 6.833 -30H17.333Q20 -30 20 -27Q20 -21.5 22.583 -18.75Q25.167 -16 32.667 -16Q38.833 -16 43.083 -19.167Q47.333 -22.333 47.333 -30Q47.333 -37 46.583 -40.167Q45.833 -43.333 43.417 -44.667Q41 -46 35.667 -46H26.667Q25.5 -46 24.75 -46.917Q24 -47.833 24 -48.833V-55.333Q24 -57.833 25.667 -59.167L46.333 -81.167Q47.333 -82.167 47.333 -84.667Q47.333 -85.833 46.5 -86.583Q45.667 -87.333 44.667 -87.333H10.833Q8 -87.333 8 -90.167V-97.333Q8 -98.5 8.833 -99.25Q9.667 -100 10.667 -100H60.5Q63.333 -100 63.333 -97.333V-81Q63.333 -78.833 62.333 -77.833L44.167 -57.5Q43.833 -57.167 43.833 -56.5Q43.833 -55.833 44.833 -55.5Q45.833 -55.167 47.833 -54.833Q53.667 -53.833 57.75 -51.417Q61.833 -49 62.833 -42.167Q63.333 -38.167 63.333 -31.5Q63.333 -14 55.083 -7Q46.833 0 32.667 0Q4 0 4 -27.167Z" fill="#13283b" fill-rule="nonzero"/></g><text x="378" y="1576" font-family="DejaVu Sans,sans-serif" font-size="13" fill="#526475">3</text><g transform="translate(454 1555) scale(1)"><path d="M40 -2.833V-15.167Q40 -16.333 39.167 -17.167Q38.333 -18 37.333 -18H6.833Q5.667 -18 4.833 -18.917Q4 -19.833 4 -20.833V-33Q4 -38 6 -41.667L39.5 -97.333Q40.333 -98.833 41.417 -99.417Q42.5 -100 43.167 -100H51.833Q55.5 -100 55.5 -97.333Q55.5 -96.333 54.833 -95.167L20.5 -37.333Q20 -36.667 20 -35.833Q20 -33.333 22.833 -33.333H37.333Q38.333 -33.333 39.167 -34.167Q40 -35 40 -36.167V-50.5Q40 -51.833 40.833 -52.583Q41.667 -53.333 42.833 -53.333H53.167Q56 -53.333 56 -50.5V-36.167Q56 -35 56.833 -34.167Q57.667 -33.333 58.833 -33.333H60.5Q61.833 -33.333 62.583 -32.5Q63.333 -31.667 63.333 -30.667V-20.833Q63.333 -18 60.5 -18H58.833Q56 -18 56 -15.167V-2.833Q56 0 53.167 0H42.833Q41.667 0 40.833 -0.833Q40 -1.667 40 -2.833Z" fill="#13283b" fill-rule="nonzero"/></g><text x="476" y="1576" font-family="DejaVu Sans,sans-serif" font-size="13" fill="#526475">4</text><g transform="translate(552 1555) scale(1)"><path d="M4 -23.167Q4 -26 6.833 -26H17.167Q18.333 -26 19.167 -25.167Q20 -24.333 20 -23.167Q20 -19 22.25 -17.5Q24.5 -16 31.167 -16Q40 -16 43.667 -19.75Q47.333 -23.5 47.333 -33.167Q47.333 -42.667 44.833 -47.5Q42.333 -52.333 34.333 -52.333Q31.833 -52.333 30.083 -51.75Q28.333 -51.167 26.333 -50Q24.833 -49.167 23.333 -48.583Q21.833 -48 20 -48H6.833Q4 -48 4 -50.833V-97.333Q4 -100 6.833 -100H60.5Q63.333 -100 63.333 -97.333V-90.167Q63.333 -87.333 60.5 -87.333H22.833Q20 -87.333 20 -84.667V-62Q20 -61.167 21.5 -61.167Q22.833 -61.167 25.667 -62.833Q29 -64.667 32.083 -65.667Q35.167 -66.667 39.667 -66.667Q46.667 -66.667 51.833 -64.167Q57 -61.667 60.167 -54.25Q63.333 -46.833 63.333 -33Q63.333 -14.5 55.083 -7.25Q46.833 0 31.167 0Q20.667 0 15 -1.667Q9.333 -3.333 6.667 -8.333Q4 -13.333 4 -23.167Z" fill="#13283b" fill-rule="nonzero"/></g><text x="574" y="1576" font-family="DejaVu Sans,sans-serif" font-size="13" fill="#526475">5</text><g transform="translate(650 1555) scale(1)"><path d="M4 -33.167Q4 -46 10.25 -61.417Q16.5 -76.833 24.25 -88.417Q32 -100 34.5 -100H43.833Q47.333 -100 47.333 -97.333Q47.333 -96.333 46.667 -95.167L33.5 -73.333Q28.5 -65.167 28.5 -63.833Q28.5 -63.167 29.667 -63.167Q34.5 -64.667 40.833 -64.667Q53.5 -64.667 58.417 -56.583Q63.333 -48.5 63.333 -33.167Q63.333 -25 59.833 -17.333Q56.333 -9.667 49.667 -4.833Q43 0 34 0Q24.833 0 18 -4.75Q11.167 -9.5 7.583 -17.167Q4 -24.833 4 -33.167ZM47.333 -33.167Q47.333 -42.167 44 -48.333Q43.167 -50 39.833 -50.5Q36.5 -51 33.833 -51Q31 -51 27.5 -50.5Q24 -50 23.333 -48.333Q20 -41.667 20 -33.167Q20 -26.333 23.167 -21.167Q26.333 -16 33.833 -16Q41.167 -16 44.25 -21.083Q47.333 -26.167 47.333 -33.167Z" fill="#13283b" fill-rule="nonzero"/></g><text x="672" y="1576" font-family="DejaVu Sans,sans-serif" font-size="13" fill="#526475">6</text><g transform="translate(748 1555) scale(1)"><path d="M16 -2.833V-20.5Q16 -24.667 16.333 -26.333Q16.667 -28 17.333 -29.333L43.333 -77.5Q44 -78.833 44 -81.333Q44 -84 41.167 -84H22.833Q20 -84 20 -81.333V-74.833Q20 -72 17.167 -72H6.833Q4 -72 4 -74.833V-97.333Q4 -98.333 4.833 -99.167Q5.667 -100 6.833 -100H60.333Q61.5 -100 62.417 -99.167Q63.333 -98.333 63.333 -97.333V-83.833Q63.333 -81.333 62.083 -78.167Q60.833 -75 59 -71.667Q57.167 -68.333 55.833 -66L35.833 -29.333Q33.333 -24.833 33.333 -20.5V-2.833Q33.333 -1.667 32.5 -0.833Q31.667 0 30.667 0H18.833Q16 0 16 -2.833Z" fill="#13283b" fill-rule="nonzero"/></g><text x="770" y="1576" font-family="DejaVu Sans,sans-serif" font-size="13" fill="#526475">7</text><g transform="translate(846 1555) scale(1)"><path d="M4 -32.5Q4 -41.167 6.333 -45.333Q8.667 -49.5 12.5 -52.5Q15.333 -54.5 15.333 -56Q15.333 -57.667 13.167 -59.833Q10.833 -62.5 9.417 -65.75Q8 -69 8 -75Q8 -88.333 13.917 -94.167Q19.833 -100 33.667 -100Q48 -100 53.667 -94.25Q59.333 -88.5 59.333 -75.667Q59.333 -69.667 57.917 -66.5Q56.5 -63.333 54 -60.5Q52 -58.167 52 -56.667Q52 -55.833 52.833 -54.833Q53.667 -53.833 54.667 -53Q58.5 -49.833 60.917 -45.417Q63.333 -41 63.333 -32.5Q63.333 0 33.667 0Q4 0 4 -32.5ZM47.333 -32.5Q47.333 -39.833 44.25 -44.833Q41.167 -49.833 33.667 -49.833Q26.167 -49.833 23.083 -44.917Q20 -40 20 -32.5Q20 -16 33.667 -16Q47.333 -16 47.333 -32.5ZM43.333 -75.667Q43.333 -82.5 40.917 -84.917Q38.5 -87.333 33.667 -87.333Q28.833 -87.333 26.417 -84.75Q24 -82.167 24 -75Q24 -67.667 26.417 -65.083Q28.833 -62.5 33.667 -62.5Q38.333 -62.5 40.833 -65.417Q43.333 -68.333 43.333 -75.667Z" fill="#13283b" fill-rule="nonzero"/></g><text x="868" y="1576" font-family="DejaVu Sans,sans-serif" font-size="13" fill="#526475">8</text><g transform="translate(944 1555) scale(1)"><path d="M12.333 -2.5Q12.333 -4.167 13.667 -6L41.833 -46.333Q44.833 -50.667 46.083 -56.25Q47.333 -61.833 47.333 -66.667Q47.333 -77 43.917 -80.5Q40.5 -84 33.667 -84Q20 -84 20 -66.667Q20 -58 23.833 -55.167Q27.667 -52.333 36.167 -52.333Q37.167 -52.333 37.167 -51.333Q37.167 -50.667 35.25 -47.167Q33.333 -43.667 30.25 -40.833Q27.167 -38 23.667 -38Q13 -38 8.5 -46.25Q4 -54.5 4 -66.667Q4 -81.167 10.667 -90.583Q17.333 -100 33.667 -100Q48.167 -100 55.75 -92.667Q63.333 -85.333 63.333 -66.667Q63.333 -56 61.417 -49.667Q59.5 -43.333 56.5 -38.833L32.667 -2.833Q30.833 0 29 0H16Q12.333 0 12.333 -2.5Z" fill="#13283b" fill-rule="nonzero"/></g><text x="966" y="1576" font-family="DejaVu Sans,sans-serif" font-size="13" fill="#526475">9</text><text x="1080" y="1444" font-family="DejaVu Sans,sans-serif" font-size="14" fill="#526475">Reordered / live run</text><g transform="translate(1080 1555) scale(0.69)"><path d="M4 -2.833V-97.333Q4 -98.5 4.833 -99.25Q5.667 -100 6.833 -100H36.167Q47.167 -100 54.917 -94.667Q62.667 -89.333 62.667 -76.667Q62.667 -70 60.5 -66.167Q58.333 -62.333 54.833 -59.167Q53.667 -57.833 52.75 -56.667Q51.833 -55.5 51.833 -54.5Q51.833 -53.833 52.917 -52.917Q54 -52 55.333 -51Q60.667 -47.167 64 -42.667Q67.333 -38.167 67.333 -30.5Q67.333 -15.833 59.167 -7.917Q51 0 36.167 0H6.833Q5.667 0 4.833 -0.833Q4 -1.667 4 -2.833ZM51.333 -31.167Q51.333 -38.667 47.417 -43.333Q43.5 -48 36.333 -48H22.833Q21.333 -48 20.667 -47Q20 -46 20 -45V-18.667Q20 -17.667 20.833 -16.833Q21.667 -16 22.667 -16H36.833Q43.333 -16 47.333 -20.25Q51.333 -24.5 51.333 -31.167ZM46.667 -74Q46.667 -80 42.583 -83.667Q38.5 -87.333 32.167 -87.333H22.833Q20 -87.333 20 -84.667V-62.333Q20 -61.167 20.75 -60.25Q21.5 -59.333 22.667 -59.333H32.667Q46.667 -59.333 46.667 -74Z" fill="#13283b" fill-rule="nonzero"/></g><g transform="translate(1138.21977 1555) scale(0.69)"><path d="M4 -4.333Q4 -5 4.333 -6.333L21.167 -94.5Q21.667 -97.167 23.667 -98.583Q25.667 -100 27.667 -100H43.5Q48.333 -100 49.333 -96L67 -6.333Q67.333 -5 67.333 -4.333Q67.333 0 62.833 0H55.5Q52.167 0 51.667 -2.333L49 -17Q48.5 -20 46.167 -20H23.5Q22.167 -20 21.583 -19.333Q21 -18.667 20.667 -17L17.833 -2.333Q17.667 -1 16.583 -0.5Q15.5 0 14.5 0H7.667Q6.5 0 5.25 -0.917Q4 -1.833 4 -4.333ZM45.5 -36.5 37.167 -82Q37 -83 36.417 -83.5Q35.833 -84 35 -84Q33.333 -84 32.833 -82L24.333 -36.5V-36Q24.333 -34.833 25.167 -34.083Q26 -33.333 27.167 -33.333H42.5Q44 -33.333 44.833 -34.167Q45.667 -35 45.5 -36.5Z" fill="#13283b" fill-rule="nonzero"/></g><g transform="translate(1196.4395399999999 1555) scale(0.69)"><path d="M4 -23.833V-84.167Q4 -91.167 8.667 -95.583Q13.333 -100 20 -100H49Q54.333 -100 58.833 -97.083Q63.333 -94.167 63.333 -87.333V-79.667Q63.333 -78.5 62.583 -77.583Q61.833 -76.667 60.5 -76.667H50.167Q49 -76.667 48.167 -77.583Q47.333 -78.5 47.333 -79.667V-84.667Q47.333 -86.167 46.333 -86.75Q45.333 -87.333 44.333 -87.333H28.667Q23 -87.333 21.5 -85.083Q20 -82.833 20 -78.333V-24.667Q20 -20.333 24.667 -17.5Q29.333 -14.667 34.333 -14.667Q37.167 -14.667 41.167 -15.667Q45.167 -16.667 48.25 -18.917Q51.333 -21.167 51.333 -24.667V-38.667Q51.333 -39.667 50.583 -40.5Q49.833 -41.333 48.5 -41.333H34.833Q33.667 -41.333 32.833 -42.25Q32 -43.167 32 -44.333V-51.333Q32 -52.333 32.833 -53.167Q33.667 -54 34.833 -54H64.5Q67.333 -54 67.333 -51.167V-2.833Q67.333 -1.667 66.5 -0.833Q65.667 0 64.667 0H58.333Q57.167 0 56 -1.5Q54.833 -3 53.5 -5.5Q52.667 -7 51.833 -8.167Q51 -9.333 50.5 -9.333Q50.5 -9.333 47.5 -6.333Q44.5 -3.333 39.75 -1Q35 1.333 27.833 1.333Q17.167 1.333 10.583 -5.667Q4 -12.667 4 -23.833Z" fill="#13283b" fill-rule="nonzero"/></g><g transform="translate(1254.6593099999998 1555) scale(0.69)"><path d="M4 -2.667V-97Q4 -98.333 4.75 -99.167Q5.5 -100 6.667 -100H17.333Q18.333 -100 19.167 -99.25Q20 -98.5 20 -97.333V-65.667Q20 -64.5 20.833 -63.583Q21.667 -62.667 22.833 -62.667H48.5Q49.833 -62.667 50.583 -63.5Q51.333 -64.333 51.333 -65.333V-97.333Q51.333 -98.5 52.167 -99.25Q53 -100 54.333 -100H64.5Q65.833 -100 66.583 -99.167Q67.333 -98.333 67.333 -97.333V-3Q67.333 -2 66.667 -1Q66 0 64.5 0H54.167Q53 0 52.167 -0.833Q51.333 -1.667 51.333 -2.833V-43.833Q51.333 -45 50.583 -45.833Q49.833 -46.667 48.667 -46.667H22.833Q20 -46.667 20 -43.833V-2.667Q20 -1.5 19.167 -0.75Q18.333 0 17 0H6.833Q5.667 0 4.833 -0.833Q4 -1.667 4 -2.667Z" fill="#13283b" fill-rule="nonzero"/></g><g transform="translate(1312.8790799999997 1555) scale(0.69)"><path d="M4 -2.667V-97Q4 -98.333 4.75 -99.167Q5.5 -100 6.667 -100H17.333Q18.333 -100 19.167 -99.25Q20 -98.5 20 -97.333V-19Q20 -17.833 20.833 -16.917Q21.667 -16 22.833 -16H48.5Q49.833 -16 50.583 -16.833Q51.333 -17.667 51.333 -18.667V-28.667Q51.333 -29.833 52.167 -30.583Q53 -31.333 54.333 -31.333H64.5Q65.833 -31.333 66.583 -30.5Q67.333 -29.667 67.333 -28.667V-8Q67.333 -4.5 64.917 -2.25Q62.5 0 59.333 0H6.833Q5.667 0 4.833 -0.833Q4 -1.667 4 -2.667Z" fill="#13283b" fill-rule="nonzero"/></g><g transform="translate(1371.0988499999996 1555) scale(0.69)"><path d="M4 -29.167V-76.333Q4 -89.167 13.417 -94.583Q22.833 -100 35.5 -100Q48.5 -100 57.917 -94.583Q67.333 -89.167 67.333 -76.333V-45.833Q67.333 -37 65.583 -32.083Q63.833 -27.167 58.5 -20.5Q58.333 -20 57.75 -19.25Q57.167 -18.5 57.167 -17.833Q57.167 -17 57.833 -16L66.167 -5.667Q67.333 -4.5 67.333 -2.833Q67.333 0 63.667 0H29.667Q22.833 0 16.917 -4.167Q11 -8.333 7.5 -15.083Q4 -21.833 4 -29.167ZM39.833 -17.667Q39.833 -18.833 39.333 -19.333L29 -34.5Q28.167 -35.667 28.167 -36.5Q28.167 -39.333 31.833 -39.333H38.167Q40.5 -39.333 42.333 -36.5L48.5 -28.167Q49.333 -27.167 50.167 -27.167Q51.333 -27.333 51.333 -29.5V-76.333Q51.333 -81.167 46.417 -84.25Q41.5 -87.333 35.833 -87.333Q30.333 -87.333 25.167 -84.417Q20 -81.5 20 -76.333V-29.167Q20 -24.5 21.917 -20.25Q23.833 -16 28.333 -16H38Q39.5 -16 39.833 -17.667Z" fill="#13283b" fill-rule="nonzero"/></g><rect x="32" y="1604" width="1516" height="220" rx="12" fill="#fffdf8" stroke="#d6dfdf"/><text x="52" y="1638" font-family="DejaVu Sans,sans-serif" font-size="25" fill="#17374d">Noto Naskh Arabic Bold · labelled candidate</text><text x="52" y="1667" font-family="DejaVu Sans,sans-serif" font-size="14" fill="#956920">LICENSED CANDIDATE · not a verified Iraqi die</text><path d="M50 1795H1530M50 1695H1530" fill="none" stroke="#dce7e5" stroke-dasharray="5 5"/><g transform="translate(62 1795) scale(1)"><path d="M25.126 -18.466Q20.588 -22.066 17.145 -24.413Q13.702 -26.761 10.651 -28.638Q7.599 -30.516 4 -32.551Q5.721 -35.211 7.13 -37.872Q8.538 -40.532 9.946 -43.036Q11.198 -45.696 12.842 -48.279Q14.485 -50.861 16.05 -53.365Q20.588 -50.861 24.187 -48.513Q27.787 -46.166 30.604 -43.975Q36.238 -39.28 36.238 -37.246Q36.238 -34.272 25.126 -18.466Z" fill="#13283b" fill-rule="nonzero"/></g><text x="84" y="1816" font-family="DejaVu Sans,sans-serif" font-size="13" fill="#526475">0</text><g transform="translate(160 1795) scale(1)"><path d="M30.447 0 21.527 -1.565Q21.527 -10.329 20.823 -18.153Q20.119 -25.978 18.867 -32.942Q17.615 -39.906 15.893 -45.696Q14.641 -50.235 12.137 -56.338Q9.634 -62.441 5.878 -70.266Q4 -74.335 4 -78.091Q4 -83.255 7.286 -87.246Q10.572 -91.236 16.363 -93.584Q21.684 -84.194 25.518 -73.005Q29.352 -61.815 31.543 -50.782Q33.734 -39.75 33.734 -30.673Q33.734 -22.066 32.951 -15.102Q32.169 -8.138 30.447 0Z" fill="#13283b" fill-rule="nonzero"/></g><text x="182" y="1816" font-family="DejaVu Sans,sans-serif" font-size="13" fill="#526475">1</text><g transform="translate(258 1795) scale(1)"><path d="M30.447 0 21.684 -1.565Q21.527 -14.085 20.197 -24.726Q18.867 -35.368 16.206 -45.383Q14.954 -50.391 12.372 -56.573Q9.79 -62.754 6.191 -70.266Q4 -74.335 4 -78.247Q4 -83.255 7.286 -87.167Q10.573 -91.08 16.676 -93.584Q19.649 -88.263 21.84 -83.255Q24.031 -78.247 25.439 -73.709Q29.352 -71.205 35.455 -71.205Q45.158 -71.205 50.244 -76.291Q55.33 -81.377 56.738 -93.271L64.25 -91.706Q63.468 -78.873 61.433 -71.831Q59.399 -64.789 56.269 -60.407Q53.139 -56.025 48.601 -53.756Q44.062 -51.487 37.959 -51.487Q34.203 -51.487 31.386 -52.582Q32.169 -49.296 32.716 -45.149Q33.264 -41.002 33.577 -37.089Q33.89 -33.177 33.89 -30.673Q33.89 -25.509 33.499 -20.344Q33.108 -15.18 32.404 -10.094Q31.699 -5.008 30.447 0Z" fill="#13283b" fill-rule="nonzero"/></g><text x="280" y="1816" font-family="DejaVu Sans,sans-serif" font-size="13" fill="#526475">2</text><g transform="translate(356 1795) scale(1)"><path d="M30.604 0 21.684 -1.565Q21.528 -8.451 21.136 -14.241Q20.745 -20.031 20.041 -25.509Q19.337 -30.986 18.085 -36.776Q16.833 -42.723 15.581 -47.105Q14.329 -51.487 12.138 -56.729Q9.947 -61.972 6.035 -70.266Q4 -74.178 4 -78.091Q4 -83.255 7.365 -87.246Q10.73 -91.236 16.52 -93.584Q19.18 -88.732 21.528 -83.412Q23.875 -78.091 25.753 -72.457Q28.413 -71.362 30.917 -71.362Q39.368 -71.362 39.368 -83.099Q39.368 -83.568 39.212 -85.603Q39.055 -87.637 38.742 -91.08L44.532 -93.114Q46.567 -88.263 47.74 -83.725Q48.914 -79.186 49.384 -75.117Q50.166 -74.961 50.87 -74.883Q51.575 -74.804 52.201 -74.804Q58.773 -74.804 58.773 -86.072Q58.773 -87.793 58.695 -89.671Q58.617 -91.549 58.304 -93.427L66.129 -92.488Q66.755 -88.889 66.989 -85.211Q67.224 -81.534 67.224 -77.778Q67.224 -67.919 63.39 -61.815Q59.556 -55.712 53.609 -55.712Q50.949 -55.712 45.941 -58.529Q43.28 -54.773 40.15 -53.208Q37.021 -51.643 33.421 -51.643Q32.952 -51.8 32.404 -51.8Q31.856 -51.8 31.387 -51.8Q32.639 -45.853 33.265 -40.532Q33.891 -35.211 33.891 -30.673Q33.891 -22.222 33.108 -15.493Q32.326 -8.764 30.604 0Z" fill="#13283b" fill-rule="nonzero"/></g><text x="378" y="1816" font-family="DejaVu Sans,sans-serif" font-size="13" fill="#526475">3</text><g transform="translate(454 1795) scale(1)"><path d="M39.054 0.156Q26.378 0.156 19.414 -4.695Q12.45 -9.546 12.45 -18.623Q12.45 -28.951 24.5 -41.784Q20.432 -43.192 15.658 -45.383Q10.885 -47.574 7.443 -50.078Q4 -52.582 4 -54.93Q4 -58.685 5.173 -64.163Q6.347 -69.64 8.147 -74.491Q9.946 -79.343 11.824 -81.221Q14.798 -84.664 18.945 -88.263Q23.092 -91.862 27.709 -94.992Q32.325 -98.122 36.394 -100Q38.115 -97.027 38.115 -92.332Q38.115 -87.95 36.55 -83.803Q34.986 -79.656 32.951 -77.934Q31.073 -76.369 29.195 -75.039Q27.317 -73.709 25.283 -72.457Q23.248 -71.205 20.745 -69.718Q18.241 -68.232 14.954 -66.354Q20.432 -63.224 26.378 -61.189Q32.325 -59.155 38.741 -58.216L43.436 -48.044Q37.802 -44.288 32.873 -39.906Q27.943 -35.524 24.97 -31.534Q21.996 -27.543 21.996 -24.883Q21.996 -22.535 24.657 -21.205Q27.317 -19.875 31.151 -19.327Q34.986 -18.779 38.741 -18.779Q46.879 -18.779 52.591 -19.718Q58.303 -20.657 61.746 -22.692L64.094 -18.779Q63.468 -18.153 61.824 -16.51Q60.181 -14.867 57.677 -12.05Q51.261 -4.851 47.036 -2.347Q42.81 0.156 39.054 0.156Z" fill="#13283b" fill-rule="nonzero"/></g><text x="476" y="1816" font-family="DejaVu Sans,sans-serif" font-size="13" fill="#526475">4</text><g transform="translate(552 1795) scale(1)"><path d="M25.44 -6.573Q14.172 -6.573 9.086 -12.833Q4 -19.092 4 -32.081Q4 -39.75 5.956 -48.2Q7.912 -56.651 11.355 -64.397Q14.798 -72.144 19.024 -77.621Q25.283 -85.759 31.074 -85.759Q37.49 -85.759 42.106 -80.908Q46.723 -76.056 49.54 -66.354Q50.948 -61.502 51.574 -56.26Q52.2 -51.017 52.2 -45.383Q52.2 -38.811 51.34 -32.864Q50.479 -26.917 48.757 -23.787Q44.532 -15.493 38.429 -11.033Q32.326 -6.573 25.44 -6.573ZM27.631 -26.917Q32.482 -26.917 35.925 -29.264Q39.368 -31.612 41.246 -34.507Q43.124 -37.402 43.124 -39.28Q43.124 -46.479 41.011 -52.034Q38.898 -57.59 35.455 -60.798Q32.013 -64.006 27.631 -64.006Q24.657 -64.006 21.371 -59.859Q18.085 -55.712 15.737 -49.296Q13.233 -43.192 13.233 -38.028Q13.233 -26.917 27.631 -26.917Z" fill="#13283b" fill-rule="nonzero"/></g><text x="574" y="1816" font-family="DejaVu Sans,sans-serif" font-size="13" fill="#526475">5</text><g transform="translate(650 1795) scale(1)"><path d="M56.895 0Q51.261 -14.085 48.914 -25.9Q46.566 -37.715 46.566 -51.33Q46.566 -55.243 46.801 -58.92Q47.036 -62.598 47.584 -66.041Q48.131 -69.484 48.757 -72.457Q45.314 -71.674 39.681 -71.049Q34.047 -70.423 29.821 -70.423Q22.936 -70.423 15.659 -72.144Q8.382 -73.865 4 -76.213L8.851 -94.523Q14.485 -92.488 20.354 -91.393Q26.222 -90.297 32.482 -90.297Q38.272 -90.297 44.219 -90.689Q50.166 -91.08 56.426 -91.862L60.181 -86.698Q58.773 -81.534 58.069 -76.056Q57.364 -70.579 57.364 -64.945Q57.364 -56.025 58.616 -48.2Q59.868 -40.376 62.764 -32.316Q65.659 -24.257 70.51 -14.397L56.895 0Z" fill="#13283b" fill-rule="nonzero"/></g><text x="672" y="1816" font-family="DejaVu Sans,sans-serif" font-size="13" fill="#526475">6</text><g transform="translate(748 1795) scale(1)"><path d="M37.333 -0.156Q34.36 -8.764 32.091 -15.102Q29.822 -21.44 27.552 -26.917Q25.283 -32.394 22.388 -38.263Q19.493 -44.131 15.502 -51.8Q11.512 -59.468 5.721 -70.423Q4 -73.396 4 -76.839Q4 -81.847 7.286 -86.307Q10.573 -90.767 15.894 -93.271Q19.023 -88.576 22.701 -80.595Q26.379 -72.613 30.213 -62.833Q34.047 -53.052 37.49 -42.645Q40.933 -32.238 43.437 -22.535Q44.845 -31.612 47.192 -41.471Q49.54 -51.33 52.435 -60.955Q55.33 -70.579 58.617 -78.873Q61.903 -87.167 65.189 -93.114L77.239 -78.404Q69.884 -65.102 64.72 -53.912Q59.556 -42.723 55.643 -31.69Q51.731 -20.657 47.818 -7.668Q45.314 -5.79 42.654 -3.912Q39.994 -2.034 37.333 -0.156Z" fill="#13283b" fill-rule="nonzero"/></g><text x="770" y="1816" font-family="DejaVu Sans,sans-serif" font-size="13" fill="#526475">7</text><g transform="translate(846 1795) scale(1)"><path d="M16.207 -0.313 4 -14.867Q9.634 -25.665 13.781 -34.038Q17.928 -42.41 21.136 -50.156Q24.344 -57.903 27.239 -66.354Q30.135 -74.804 33.421 -85.759L44.063 -93.271Q47.036 -84.664 49.305 -78.247Q51.574 -71.831 53.922 -66.275Q56.269 -60.72 59.086 -54.773Q61.903 -48.826 65.894 -41.158Q69.884 -33.49 75.674 -22.848Q77.239 -19.875 77.239 -16.432Q77.239 -11.424 74.031 -6.964Q70.823 -2.504 65.346 -0.156Q62.529 -4.695 59.164 -11.581Q55.8 -18.466 52.279 -27.387Q48.757 -36.307 45.158 -46.635Q42.654 -54.46 40.776 -60.329Q38.898 -66.197 37.803 -70.423Q36.238 -60.407 33.734 -50.235Q31.23 -40.063 28.257 -30.595Q25.283 -21.127 22.153 -13.302Q19.023 -5.477 16.207 -0.313Z" fill="#13283b" fill-rule="nonzero"/></g><text x="868" y="1816" font-family="DejaVu Sans,sans-serif" font-size="13" fill="#526475">8</text><g transform="translate(944 1795) scale(1)"><path d="M46.41 0.156Q42.967 -8.607 40.854 -15.336Q38.741 -22.066 37.646 -28.091Q36.55 -34.116 36.081 -40.845Q32.325 -39.75 28.726 -39.75Q17.302 -39.75 10.651 -46.244Q4 -52.739 4 -64.163Q4 -71.205 7.364 -78.56Q10.729 -85.915 16.363 -90.767Q21.683 -95.618 26.848 -95.618Q37.02 -95.618 42.262 -86.776Q47.505 -77.934 47.505 -61.659Q47.505 -52.582 48.6 -45.54Q49.696 -38.498 52.435 -31.299Q55.173 -24.1 60.025 -14.241L46.41 0.156ZM31.073 -58.372Q32.012 -58.372 32.951 -58.451Q33.89 -58.529 34.672 -58.685L35.142 -58.842Q34.046 -67.606 30.838 -72.3Q27.63 -76.995 22.466 -76.995Q19.805 -76.995 17.693 -75.743Q15.58 -74.491 14.328 -72.457Q13.076 -70.423 13.076 -67.919Q13.076 -63.38 17.849 -60.876Q22.622 -58.372 31.073 -58.372Z" fill="#13283b" fill-rule="nonzero"/></g><text x="966" y="1816" font-family="DejaVu Sans,sans-serif" font-size="13" fill="#526475">9</text><text x="1080" y="1684" font-family="DejaVu Sans,sans-serif" font-size="14" fill="#526475">Reordered / live run</text><g transform="translate(1080 1795) scale(0.69)"><path d="M42.184 0Q23.248 0 13.624 -8.607Q4 -17.214 4 -33.333Q4 -40.063 6.973 -50.548H14.015Q13.859 -49.922 13.702 -47.105Q13.546 -44.288 13.546 -42.723Q13.546 -33.646 17.067 -28.717Q20.588 -23.787 28.1 -21.127Q31.856 -20.031 36.863 -19.327Q41.871 -18.623 47.975 -18.623Q61.59 -18.623 74.735 -21.127Q87.881 -23.631 98.679 -28.482Q97.114 -32.081 94.688 -36.541Q92.263 -41.002 90.854 -43.505Q89.289 -46.635 88.194 -49.061Q87.098 -51.487 87.098 -53.521Q87.098 -57.277 91.324 -61.815Q95.549 -66.354 101.339 -69.327Q103.843 -57.59 105.173 -50.235Q106.504 -42.879 107.13 -38.889Q107.755 -34.898 107.755 -33.02Q107.755 -29.421 105.956 -24.022Q104.156 -18.623 101.652 -14.085Q94.766 -9.859 85.142 -6.729Q75.518 -3.599 64.485 -1.8Q53.452 0 42.184 0ZM52.356 34.898Q44.375 28.326 40.306 23.631Q43.906 20.031 46.801 16.98Q49.696 13.928 52.043 11.111Q53.765 12.989 56.582 15.806Q59.399 18.623 63.311 22.379Q61.433 25.039 58.694 28.169Q55.956 31.299 52.356 34.898Z" fill="#13283b" fill-rule="nonzero"/></g><g transform="translate(1180.11095 1795) scale(0.69)"><path d="M51.73 45.07Q31.856 45.07 20.823 34.977Q9.79 24.883 9.79 6.886Q9.79 -3.286 14.094 -12.598Q18.397 -21.909 26.535 -29.264Q30.134 -32.551 34.203 -35.446Q38.272 -38.341 43.123 -40.689Q39.524 -42.097 36.394 -43.192Q33.264 -44.288 30.369 -44.914Q27.474 -45.54 24.5 -45.54Q19.962 -45.54 16.519 -44.21Q13.076 -42.879 7.599 -39.437Q6.191 -40.845 5.095 -43.584Q4 -46.322 4 -48.826Q4 -55.869 9.633 -60.016Q15.267 -64.163 24.813 -64.163Q29.978 -64.163 35.612 -62.911Q41.245 -61.659 49.853 -58.529Q58.303 -55.399 64.72 -53.991Q71.136 -52.582 77.083 -52.582L91.324 -52.895L84.907 -35.368Q82.873 -35.055 79.352 -34.898Q75.831 -34.742 72.231 -34.82Q68.632 -34.898 65.971 -35.055Q60.807 -34.272 54.704 -32.081Q48.601 -29.89 42.81 -26.839Q37.02 -23.787 32.325 -20.031Q25.439 -14.554 21.605 -8.294Q17.771 -2.034 17.771 4.538Q17.771 11.581 22.153 16.588Q26.535 21.596 34.281 24.335Q42.028 27.074 52.043 27.074Q60.025 27.074 69.414 25.9Q78.804 24.726 89.759 22.222L91.95 28.795Q83.342 33.646 75.361 37.324Q67.38 41.002 61.198 43.036Q55.017 45.07 51.73 45.07ZM53.765 11.111Q45.784 4.538 41.715 -0.156Q45.314 -3.756 48.209 -6.808Q51.104 -9.859 53.452 -12.676Q55.173 -10.798 57.99 -7.981Q60.807 -5.164 64.72 -1.408Q62.842 1.252 60.103 4.382Q57.364 7.512 53.765 11.111Z" fill="#13283b" fill-rule="nonzero"/></g><g transform="translate(1269.31645 1795) scale(0.69)"><path d="M48.444 47.105Q36.238 47.105 27.318 42.723Q18.398 38.341 13.546 30.203Q8.695 22.066 8.695 11.111Q8.695 -5.79 20.432 -18.466Q15.424 -20.814 11.59 -24.648Q7.756 -28.482 5.878 -32.707Q4 -36.933 4 -40.845Q4 -45.54 5.8 -50.939Q7.599 -56.338 10.808 -61.268Q14.016 -66.197 17.928 -69.484Q23.718 -74.335 30.135 -74.335Q35.612 -74.335 41.559 -70.736Q47.506 -67.136 53.922 -59.781L50.635 -53.521Q45.941 -55.399 41.872 -56.26Q37.803 -57.121 34.203 -57.121Q28.726 -57.121 24.423 -55.947Q20.119 -54.773 15.111 -52.113Q15.581 -43.662 20.823 -38.028Q26.066 -32.394 34.986 -30.203Q41.872 -34.272 49.383 -37.637Q56.895 -41.002 65.346 -43.818Q67.067 -41.315 67.067 -35.837Q67.067 -32.551 65.737 -29.969Q64.407 -27.387 61.434 -25.352Q60.182 -24.413 57.365 -23.083Q54.548 -21.753 50.322 -20.031Q36.707 -14.71 29.978 -10.329Q23.249 -5.947 19.962 -0.782Q18.398 1.721 17.537 4.538Q16.676 7.355 16.676 10.172Q16.676 19.092 24.892 24.1Q33.108 29.108 48.757 29.108Q51.887 29.108 55.174 28.873Q58.46 28.638 61.903 28.169Q65.189 27.7 70.98 26.526Q76.77 25.352 84.908 23.474L86.942 30.047Q73.484 38.341 63.39 42.723Q53.296 47.105 48.444 47.105Z" fill="#13283b" fill-rule="nonzero"/></g><g transform="translate(1355.06643 1795) scale(0.69)"><path d="M87.568 1.408Q76.613 1.095 67.067 -1.252Q57.521 -3.599 50.166 -7.512Q38.898 -1.408 22.779 -1.408Q21.214 -1.408 17.693 -3.365Q14.172 -5.321 10.416 -8.216Q6.66 -11.111 4 -14.085L7.13 -20.344Q11.355 -19.562 15.659 -19.092Q19.962 -18.623 24.344 -18.623Q27.161 -18.623 29.9 -18.779Q32.638 -18.936 35.142 -19.249Q29.665 -26.604 29.665 -33.803Q29.665 -38.028 31.386 -42.879Q33.108 -47.731 36.081 -52.034Q39.055 -56.338 42.497 -58.685L47.036 -74.961Q59.712 -71.831 70.979 -63.302Q82.247 -54.773 88.82 -42.879Q95.549 -30.829 95.549 -19.562Q95.549 -12.05 87.568 1.408ZM51.418 -23.944Q54.548 -25.509 56.582 -29.343Q58.616 -33.177 58.616 -37.559Q58.616 -41.315 56.034 -44.21Q53.452 -47.105 50.792 -47.105Q48.131 -47.105 45.784 -45.696Q43.436 -44.288 41.402 -41.315Q40.307 -39.75 39.368 -37.95Q38.429 -36.15 37.646 -33.959Q40.62 -30.829 44.062 -28.326Q47.505 -25.822 51.418 -23.944ZM86.785 -15.649Q84.125 -23.005 81.073 -28.638Q78.022 -34.272 74.657 -38.654Q71.292 -43.036 67.067 -46.322Q68.789 -41.628 68.789 -37.089Q68.789 -27.387 63.937 -19.562Q68.006 -18.466 73.718 -17.527Q79.43 -16.588 86.785 -15.649Z" fill="#13283b" fill-rule="nonzero"/></g><text x="48" y="1872" font-family="DejaVu Sans,sans-serif" font-size="16" fill="#526475">Historical source subsets carry source-specific rights. Truck ٨٩ and all incomplete motorcycle digits are excluded.</text></svg>
