<svg xmlns="http://www.w3.org/2000/svg" width="192" height="400" viewBox="0 0 48 100"><path fill="black" fill-rule="evenodd" d="M 2.34,22.0 C 3.28,7.0 12.68,0.0 23.96,0.0 C 38.06,0.0 44.64,10.0 44.64,27.0 C 44.64,36.0 42.76,41.0 38.06,47.0 C 43.7,52.0 46.52,61.0 46.52,73.0 C 46.52,90.0 38.06,100.0 23.02,100.0 C 8.92,100.0 1.4,88.0 1.4,74.0 L 13.62,74.0 C 13.62,82.0 16.44,89.0 23.02,89.0 C 30.54,89.0 34.3,83.0 34.3,73.0 C 34.3,60.0 30.54,55.0 20.2,55.0 L 20.2,42.0 C 29.6,42.0 32.42,37.0 32.42,26.0 C 32.42,17.0 29.6,12.0 23.96,12.0 C 18.32,12.0 14.56,16.0 14.56,24.0 L 2.34,22.0 Z"/></svg>